<svg width="230" height="152" fill="none" xmlns="http://www.w3.org/2000/svg"><path opacity=".1" fill-rule="evenodd" clip-rule="evenodd" d="M15.175 56.46c-16.89 19.712 20.114 72.796 99.76 66.663 79.646-6.133 30.663-7.217 80.086-9.659 49.422-2.441-6.536-57.874-85.136-90.764-78.601-32.89-77.82 14.049-94.71 33.76Z" fill="#02ECF1"/><path fill-rule="evenodd" clip-rule="evenodd" d="M137.461 47.059a.27.27 0 0 1 .266.007c3.46-1.849 9.09-1.848 12.571 0a.267.267 0 0 1 .262-.008c-.663-.35-1.193-.538-1.198-.54-.368-.13-.865-.287-1.241-.397-.196-.058-.464-.115-.664-.16-1.025-.227-2.284-.357-3.454-.357-1.189 0-2.418.128-3.46.36-.205.045-.478.105-.679.164a26.1 26.1 0 0 0-1.234.4 8.873 8.873 0 0 0-.627.263c-.165.075-.38.187-.542.268Z" fill="#000"/><path fill-rule="evenodd" clip-rule="evenodd" d="m150.56 47.058 2.954 1.567 2.955 1.568 2.955 1.568 2.954 1.567 2.955 1.568 2.955 1.568 2.955 1.567 2.954 1.568 2.955 1.568 2.955 1.567a.267.267 0 0 0-.262.008l-29.547-15.677a.266.266 0 0 1 .262-.007ZM61.746 87.493l7.572-4.043 7.571-4.044 7.572-4.043 7.571-4.043 7.572-4.044 7.571-4.043 7.571-4.044 7.572-4.043 7.571-4.044 7.572-4.043a.27.27 0 0 1 .266.006L62.012 87.5a.27.27 0 0 0-.266-.007Z" fill="#000"/><path fill-rule="evenodd" clip-rule="evenodd" d="M179.845 62.742c3.482 1.847 3.5 4.843.04 6.69l-75.715 40.435c-3.458 1.847-9.087 1.848-12.568 0L62.055 94.191c-3.482-1.847-3.502-4.844-.043-6.691l75.715-40.435c3.46-1.848 9.09-1.847 12.571 0l29.547 15.677Z" fill="#000"/><mask id="a" style="mask-type:alpha" maskUnits="userSpaceOnUse" x="58" y="62" width="126" height="53"><path fill-rule="evenodd" clip-rule="evenodd" d="M58.518 62.703H183.37v52.024H58.518V62.703Z" fill="#fff"/></mask><g mask="url(#a)"><path fill-rule="evenodd" clip-rule="evenodd" d="M183.322 66.89a4.994 4.994 0 0 0-.486-1.57 5.114 5.114 0 0 0-.794-1.138 8.23 8.23 0 0 0-.627-.589 10.32 10.32 0 0 0-.834-.589c-.136-.089-.332-.188-.474-.27a.267.267 0 0 0-.262.008c3.482 1.847 3.5 4.843.039 6.69l-75.714 40.435c-3.458 1.848-9.087 1.848-12.568.001L62.055 94.191c-3.482-1.847-3.502-4.844-.043-6.69a.27.27 0 0 0-.266-.007 17.8 17.8 0 0 0-.872.534 4.494 4.494 0 0 0-.397.3 7.254 7.254 0 0 0-.555.513 5.45 5.45 0 0 0-.545.67 4.884 4.884 0 0 0-.811 2.13c-.036.244-.04.43-.047.688l-.001.378c0 .7.123 1.199.23 1.555a4.96 4.96 0 0 0 .636 1.305 5.3 5.3 0 0 0 .442.558c.188.2.46.452.672.632.228.192.568.41.82.575.134.088.326.185.465.265l29.547 15.676c.662.349 1.192.538 1.197.54.368.13.865.287 1.241.397.196.057.464.115.664.16 1.024.227 2.283.357 3.454.357a16.44 16.44 0 0 0 3.459-.36c.204-.045.478-.105.678-.164.374-.11.868-.27 1.234-.4a8.19 8.19 0 0 0 .626-.263c.166-.075.38-.187.543-.268.092-.049.172-.153.235-.3-.063.147-.143.251-.235.3l30.286-16.174 45.428-24.26c.257-.146.6-.344.84-.512.237-.166.532-.412.748-.6a4.78 4.78 0 0 0 .451-.472c.135-.162.3-.388.416-.562a4.916 4.916 0 0 0 .717-1.929c.046-.3.051-.504.058-.763l.001-.377c-.004-.23-.007-.448-.049-.734Z" fill="#250F8A"/></g><path fill-rule="evenodd" clip-rule="evenodd" d="M137.461 44.975a.27.27 0 0 1 .266.006c3.46-1.848 9.09-1.847 12.571 0a.266.266 0 0 1 .262-.008c-.663-.349-1.193-.537-1.198-.54-.368-.13-.865-.287-1.241-.397-.196-.057-.464-.115-.664-.16a16.733 16.733 0 0 0-3.454-.356c-1.189 0-2.418.127-3.46.359-.205.046-.478.105-.679.165a26.1 26.1 0 0 0-1.234.4 8.873 8.873 0 0 0-.627.262c-.165.075-.38.188-.542.269Z" fill="#646764"/><path fill-rule="evenodd" clip-rule="evenodd" d="m150.56 44.973 2.954 1.568 2.955 1.568 2.955 1.567 2.954 1.568 2.955 1.568 2.955 1.567 2.955 1.568 2.954 1.568 2.955 1.567 2.955 1.568a.266.266 0 0 0-.262.008L150.298 44.98a.266.266 0 0 1 .262-.008ZM61.746 85.409l7.572-4.043 7.571-4.044 7.572-4.043 7.571-4.044 7.572-4.043 7.571-4.044 7.571-4.043 7.572-4.043 7.571-4.044 7.572-4.044a.27.27 0 0 1 .266.007L62.012 85.416a.27.27 0 0 0-.266-.007Z" fill="#646764"/><path fill-rule="evenodd" clip-rule="evenodd" d="M179.845 60.657c3.482 1.847 3.5 4.844.04 6.691l-75.715 40.435c-3.458 1.847-9.087 1.847-12.568 0L62.055 92.106c-3.482-1.846-3.502-4.844-.043-6.69l75.715-40.435c3.46-1.848 9.09-1.848 12.571 0l29.547 15.676Z" fill="#02ECF1"/><path fill-rule="evenodd" clip-rule="evenodd" d="M183.322 64.805a4.986 4.986 0 0 0-.486-1.57 5.115 5.115 0 0 0-.794-1.137 8.27 8.27 0 0 0-.627-.59 10 10 0 0 0-.834-.588c-.136-.09-.332-.189-.474-.27a.266.266 0 0 0-.262.008c3.482 1.846 3.5 4.843.039 6.69l-75.714 40.435c-3.458 1.847-9.087 1.847-12.568 0L62.055 92.106c-3.482-1.847-3.502-4.843-.043-6.69a.27.27 0 0 0-.266-.007c-.267.153-.617.366-.872.535a4.453 4.453 0 0 0-.397.3 7.316 7.316 0 0 0-.555.512 5.433 5.433 0 0 0-.545.671 4.882 4.882 0 0 0-.811 2.129c-.036.245-.04.431-.047.689l-.001.377c0 .7.123 1.2.23 1.556a4.994 4.994 0 0 0 1.078 1.862c.188.201.46.453.672.632.228.193.568.411.82.576.134.087.326.185.465.264L91.33 111.19c.662.349 1.192.537 1.197.539.368.13.865.288 1.241.398.196.057.464.115.664.159 1.024.227 2.283.358 3.454.357a16.44 16.44 0 0 0 3.459-.359c.204-.046.478-.106.678-.165.374-.11.868-.269 1.234-.399.193-.069.441-.179.626-.263.166-.075.38-.188.543-.268.092-.049.172-.153.235-.3-.063.147-.143.251-.235.3l30.286-16.174 45.428-24.26c.257-.147.6-.344.84-.512.237-.167.532-.412.748-.601a4.78 4.78 0 0 0 .451-.472c.135-.16.3-.387.416-.561a4.909 4.909 0 0 0 .717-1.93c.046-.299.051-.503.058-.762l.001-.377c-.004-.23-.007-.448-.049-.734ZM162 56.586c.356.189.358.495.004.683-.352.189-.927.189-1.283 0l-6.435-3.415c-.357-.189-.359-.495-.006-.683.354-.189.928-.189 1.285 0L162 56.586Zm-10.154-5.388c.354.188.356.494.002.683-.352.188-.927.188-1.281 0-.357-.189-.359-.495-.006-.683.354-.189.928-.189 1.285 0Z" fill="#250F8A"/><path fill-rule="evenodd" clip-rule="evenodd" d="M82.204 94.25c1.777.942 1.788 2.47.021 3.414-1.765.942-4.638.942-6.415 0-1.777-.943-1.786-2.472-.02-3.415 1.766-.943 4.637-.943 6.414 0Z" fill="#250F8A"/><path fill-rule="evenodd" clip-rule="evenodd" d="M76.24 94.666c1.767-.943 4.638-.943 6.415 0 .18.095.335.198.478.303a3.134 3.134 0 0 0-.932-.72c-1.777-.943-4.648-.944-6.415 0-1.587.848-1.735 2.169-.457 3.112-.753-.888-.454-1.966.911-2.695Z" fill="#263238"/><path fill-rule="evenodd" clip-rule="evenodd" d="M171.74 68.139c.534.283.537.742.006 1.025l-5.499 2.937-5.116 2.732-38.367 20.49-5.264 2.812-7.312 3.905-3.665 1.957c-.53.283-1.391.283-1.925 0L67.912 84.532c-.534-.283-.537-.742-.006-1.025l3.664-1.957 7.312-3.905 5.265-2.812 38.367-20.49 5.115-2.732 5.5-2.937c.53-.283 1.391-.283 1.925 0l36.686 19.465Z" fill="#fff"/><path fill-rule="evenodd" clip-rule="evenodd" d="m72.79 81.737 6.405-3.404 37.702 19.904-6.406 3.404-37.702-19.904Zm32.99 22.27c-.28 0-.548-.057-.735-.157L68.447 84.284c-.144-.077-.174-.144-.174-.154 0-.01.03-.074.169-.15l3.43-1.845 37.619 20.111-2.981 1.605c-.185.099-.451.156-.73.156Z" fill="#FA7564"/><path fill-rule="evenodd" clip-rule="evenodd" d="m85.32 74.898 37.371-20.11 37.619 20.111-37.371 20.11-37.62-20.111Z" fill="#FFCA00"/><path fill-rule="evenodd" clip-rule="evenodd" d="m80.068 77.724 4.35-2.34 37.619 20.111-4.35 2.34-37.619-20.11Zm48.629-26.168 4.81-2.589c.185-.1.451-.156.73-.156.28 0 .548.057.735.157l36.598 19.566c.144.077.174.144.174.154 0 .01-.029.074-.169.15l-5.259 2.83-37.619-20.112Zm-5.103 2.746 4.201-2.26 37.619 20.11-4.202 2.262-37.618-20.112Z" fill="#FA7564"/><path fill-rule="evenodd" clip-rule="evenodd" d="m129.033 46.59-4.785 2.575L85.724 28.57l4.785-2.574 38.524 20.595Z" fill="#02ECF1"/><path fill-rule="evenodd" clip-rule="evenodd" d="m121.914 45.523.527.843-.228.122-.527-.845.228-.12Zm-.753-1.208.527.845-.228.12-.527-.845.228-.12Z" fill="#135687"/><path fill-rule="evenodd" clip-rule="evenodd" d="m122.218 44.88.226.363-.53.28-.228.12-.53.28-.226-.364.529-.28.229-.12.53-.279Z" fill="#135687"/><path fill-rule="evenodd" clip-rule="evenodd" d="m111.428 38.873-.002.34-10.272-5.491.001-.342 10.273 5.492Z" fill="#fff"/><path fill-rule="evenodd" clip-rule="evenodd" d="m110.129 39.53.001-.342-10.273-5.492v.34l10.272 5.493Zm12.519 7.095.005-1.417a.598.598 0 0 0-.297-.476l-1.332-.712c-.163-.087-.298-.017-.299.158l-.004 1.417c0 .174.133.387.297.474l1.332.712c.164.088.297.018.298-.156ZM85.745 21.738l38.524 20.596-.021 6.831L85.724 28.57l.021-6.832Z" fill="#250F8A"/><path fill-rule="evenodd" clip-rule="evenodd" d="m122.441 46.367-.526-.844.53-.28-.226-.363-.531.28-.527-.845-.227.12.526.845-.53.279.226.364.531-.28.527.845.227-.121Zm-.085-1.635a.597.597 0 0 1 .296.476l-.004 1.418c0 .173-.134.244-.298.155l-1.332-.712a.599.599 0 0 1-.297-.474l.004-1.417c.001-.175.136-.245.299-.158l1.332.712Z" fill="#fff"/><path fill-rule="evenodd" clip-rule="evenodd" d="m122.644 50.021-3.508 1.888-38.524-20.596 3.508-1.888 38.524 20.596Z" fill="#02ECF1"/><path fill-rule="evenodd" clip-rule="evenodd" d="M88.62 32.426c.015-.01.024-.024.024-.05a.15.15 0 0 0-.023-.073.165.165 0 0 0-.065-.059c-.027-.014-.049-.018-.064-.01-.014.01-.021.026-.022.05 0 .026.007.05.022.073a.16.16 0 0 0 .063.058c.029.015.05.019.066.01Zm.01.854.002-.721-.154-.082-.002.722.153.081Zm.327.175.003-1.025-.153-.081-.003 1.025.153.081Zm-1.748-1.51v-.15a.242.242 0 0 0-.053-.039c-.065-.034-.116-.03-.153.013l-.004-.083-.145-.078-.003.722.153.081.001-.493c.025-.044.071-.047.142-.01a.61.61 0 0 1 .062.038Zm3.162 2.267.002-.477c-.003-.174-.075-.298-.216-.374-.08-.043-.147-.046-.198-.01l-.004-.085-.143-.076-.002.722.153.081.001-.514c.03-.042.076-.048.138-.015.042.023.072.05.09.081a.238.238 0 0 1 .028.118l-.001.467.152.082Zm.716.383v-.01a.48.48 0 0 1-.026-.172v-.324a.39.39 0 0 0-.07-.22.537.537 0 0 0-.19-.164.357.357 0 0 0-.142-.046c-.043-.003-.077.006-.101.028-.025.02-.037.05-.037.09l.151.08c0-.028.011-.044.034-.05.023-.008.051-.002.085.016.041.022.07.05.09.083.02.033.03.067.03.105v.048l-.095-.05c-.099-.053-.177-.075-.23-.062-.054.012-.081.056-.082.134 0 .06.023.124.065.188a.459.459 0 0 0 .167.151c.07.038.13.043.178.014a.41.41 0 0 0 .018.078l.155.083Zm-2.7-2.346.005-.124a.593.593 0 0 0-.085-.057c-.075-.04-.134-.05-.175-.028-.043.021-.064.071-.065.151v.066l-.103-.055v.12l.103.055-.002.602.153.081.001-.601.139.074v-.12l-.138-.074v-.065c0-.08.037-.099.11-.06a.5.5 0 0 1 .057.035Zm4.523 3.01v-.065a.613.613 0 0 0-.074-.306.526.526 0 0 0-.215-.21.266.266 0 0 0-.158-.036.151.151 0 0 0-.11.073.334.334 0 0 0-.04.172v.02a.616.616 0 0 0 .324.53c.055.03.108.046.153.046s.08-.015.11-.043l-.084-.127c-.044.036-.1.036-.17 0a.334.334 0 0 1-.124-.12.378.378 0 0 1-.056-.171l.444.237Zm-3.215-1.719v-.065a.606.606 0 0 0-.075-.306.52.52 0 0 0-.213-.21.26.26 0 0 0-.159-.036.142.142 0 0 0-.11.074.314.314 0 0 0-.04.171v.02c0 .108.029.21.09.306a.61.61 0 0 0 .233.224c.057.03.108.045.153.045a.142.142 0 0 0 .11-.042l-.082-.127c-.045.037-.101.037-.172-.001a.33.33 0 0 1-.123-.119.35.35 0 0 1-.055-.171l.443.237Zm-1.811-1.012v-.038a.609.609 0 0 0-.093-.299.571.571 0 0 0-.222-.214.297.297 0 0 0-.164-.043.144.144 0 0 0-.111.072.321.321 0 0 0-.04.172v.007a.61.61 0 0 0 .085.317.576.576 0 0 0 .229.224.288.288 0 0 0 .166.043.14.14 0 0 0 .111-.07.333.333 0 0 0 .039-.17Zm-1.16-.62v-.01a.645.645 0 0 0-.07-.31.459.459 0 0 0-.195-.204c-.076-.04-.137-.045-.182-.01l-.006-.077-.141-.076-.003 1 .153.082v-.343a.45.45 0 0 0 .18.174c.08.043.144.044.192.004.047-.043.072-.119.072-.23Zm5.457 3.271.002-.473a.452.452 0 0 0-.055-.225.412.412 0 0 0-.168-.156c-.09-.048-.158-.047-.208 0a.383.383 0 0 0-.186-.211c-.082-.044-.147-.048-.195-.015l-.005-.078-.144-.077-.002.722.153.081.001-.523c.026-.039.07-.043.13-.01.08.042.12.108.122.193l-.002.475.153.081.001-.494c.01-.029.025-.046.046-.054.022-.008.05-.003.085.015a.23.23 0 0 1 .094.084c.019.03.028.069.028.115l-.001.47.151.08ZM83.8 32.01c.886.474 1.607.093 1.61-.85.003-.944-.714-2.092-1.6-2.566-.886-.474-1.608-.095-1.61.85-.003.943.714 2.092 1.6 2.566Zm-3.172-6.162 38.524 20.596-.017 5.467-38.523-20.597.016-5.466Z" fill="#fff"/><path fill-rule="evenodd" clip-rule="evenodd" d="M86.531 31.98c.027-.027.041-.082.041-.167a.445.445 0 0 0-.04-.193.262.262 0 0 0-.115-.127c-.063-.033-.108-.028-.135.012v.32c.027.07.072.123.134.156.048.026.087.025.115-.002Zm.123-.393a.65.65 0 0 1 .07.31v.01c0 .112-.025.188-.072.23-.048.041-.112.04-.192-.003a.45.45 0 0 1-.18-.174v.343l-.153-.082.003-1 .141.076.006.077c.045-.035.106-.03.182.01a.46.46 0 0 1 .195.203Z" fill="#135687"/><path fill-rule="evenodd" clip-rule="evenodd" d="M86.417 31.494c.05.027.088.068.115.126.027.057.04.121.04.193 0 .085-.014.14-.04.167-.03.027-.068.027-.116.002a.294.294 0 0 1-.135-.157l.001-.32c.027-.04.072-.045.135-.011Z" fill="#fff"/><path fill-rule="evenodd" clip-rule="evenodd" d="M92.76 35.06v-.013a.33.33 0 0 0-.04-.145.25.25 0 0 0-.099-.093c-.042-.023-.076-.026-.102-.008-.025.016-.042.05-.05.103l.292.155Zm.15.134v.065l-.444-.237a.38.38 0 0 0 .056.171.334.334 0 0 0 .124.12c.07.036.126.036.17 0l.083.127a.145.145 0 0 1-.109.043.338.338 0 0 1-.153-.046.617.617 0 0 1-.324-.53v-.02c0-.072.014-.13.04-.172a.151.151 0 0 1 .11-.073c.048-.006.1.005.158.036.092.05.164.12.215.21.049.088.074.19.074.306Z" fill="#135687"/><path fill-rule="evenodd" clip-rule="evenodd" d="M92.62 34.81a.251.251 0 0 1 .1.093.33.33 0 0 1 .04.145v.012l-.291-.156c.008-.052.025-.086.05-.103s.06-.014.102.008Zm-1.914-.731c.032-.005.08.008.144.04l.095.048v.145a.084.084 0 0 1-.07.033.244.244 0 0 1-.185-.098.163.163 0 0 1-.033-.096c0-.042.016-.066.049-.072Z" fill="#fff"/><path fill-rule="evenodd" clip-rule="evenodd" d="m90.91 34.297.001-.136-.084-.044c-.056-.03-.099-.043-.127-.038-.029.006-.043.028-.043.067 0 .03.01.061.03.09.02.028.045.051.078.069a.17.17 0 0 0 .085.022.073.073 0 0 0 .06-.03Zm.151.116c0 .065.008.122.026.171v.01l-.155-.082a.373.373 0 0 1-.018-.078c-.049.029-.108.024-.178-.014a.459.459 0 0 1-.167-.15.347.347 0 0 1-.065-.189c0-.078.028-.122.081-.134.054-.013.132.009.23.061l.096.051v-.048a.198.198 0 0 0-.03-.105.227.227 0 0 0-.09-.083c-.034-.018-.062-.024-.085-.016-.022.006-.034.022-.034.05l-.151-.08c0-.04.011-.07.037-.09.024-.022.058-.03.1-.028.043.003.09.018.142.046.08.043.142.097.19.165a.39.39 0 0 1 .072.219v.324Z" fill="#135687"/><path fill-rule="evenodd" clip-rule="evenodd" d="M89.405 33.09a.249.249 0 0 1 .099.093.31.31 0 0 1 .04.145v.013l-.29-.155c.008-.052.024-.088.05-.103.026-.018.06-.015.101.007Z" fill="#fff"/><path fill-rule="evenodd" clip-rule="evenodd" d="M87.688 32.596c.03-.026.044-.082.045-.163a.438.438 0 0 0-.045-.199.282.282 0 0 0-.12-.127c-.05-.026-.089-.026-.117 0-.03.027-.044.08-.045.165 0 .074.014.14.042.197.03.058.07.1.12.127.052.029.092.029.12 0Zm.103-.405a.609.609 0 0 1 .093.3v.037c0 .07-.013.129-.039.17a.14.14 0 0 1-.11.071.289.289 0 0 1-.167-.042.578.578 0 0 1-.229-.225.611.611 0 0 1-.085-.317v-.007c0-.071.013-.129.04-.172a.144.144 0 0 1 .11-.072.297.297 0 0 1 .165.043.57.57 0 0 1 .222.214Z" fill="#135687"/><path fill-rule="evenodd" clip-rule="evenodd" d="M87.568 32.108c.05.027.092.07.12.127.03.06.045.125.045.199 0 .08-.015.137-.045.163-.028.028-.068.028-.12 0a.283.283 0 0 1-.12-.127.44.44 0 0 1-.042-.197c0-.085.015-.139.045-.165.028-.027.068-.027.117 0Zm-3.232-2.328.226.364-.53.28-.228.12-.53.278-.227-.362.53-.28.228-.12.53-.28Z" fill="#fff"/><path fill-rule="evenodd" clip-rule="evenodd" d="m84.559 31.268-.527-.845.53-.28-.226-.363-.53.28-.527-.845-.228.12.527.845-.53.28.226.362.53-.279.527.844.228-.119Zm-.75-2.674c.887.473 1.604 1.622 1.601 2.566-.003.943-.725 1.324-1.61.85-.887-.474-1.603-1.624-1.6-2.566.002-.944.724-1.324 1.61-.85Z" fill="#EFEFEF"/><path fill-rule="evenodd" clip-rule="evenodd" d="m84.032 30.423.527.846-.228.118-.527-.844.228-.12Zm-.753-1.208.526.845-.227.12-.528-.845.229-.12Z" fill="#fff"/><path fill-rule="evenodd" clip-rule="evenodd" d="M87.156 31.756a.3.3 0 0 1 .054.038v.152a.648.648 0 0 0-.063-.038c-.07-.038-.117-.034-.142.01l-.001.493-.153-.081.002-.722.146.078.004.084c.037-.044.088-.049.153-.014Zm1.151.312a.598.598 0 0 1 .085.057l-.005.124a.5.5 0 0 0-.058-.035c-.072-.039-.109-.02-.11.06v.065l.14.074-.001.12-.139-.074-.001.601-.153-.081.002-.602-.103-.055v-.12l.103.055v-.066c0-.08.022-.13.065-.15.04-.022.1-.013.175.027Zm.169 1.131.003-.722.198.081-.003.722-.198-.081Zm.104-.727a.21.21 0 0 1-.082-.076.18.18 0 0 1-.028-.095c0-.031.01-.054.028-.066.02-.01.048-.005.083.014a.197.197 0 0 1 .113.173c0 .033-.01.052-.029.064-.02.01-.048.006-.085-.014Zm.426-.042-.004 1.026-.198-.082.004-1.026.198.082Zm.539.91v-.012a.315.315 0 0 0-.04-.145.25.25 0 0 0-.1-.094c-.04-.022-.075-.025-.1-.007-.027.016-.043.051-.05.103l.29.155Zm.15.135v.065l-.444-.237a.349.349 0 0 0 .056.171.327.327 0 0 0 .123.119c.07.037.128.038.172.001l.081.127a.14.14 0 0 1-.109.042.335.335 0 0 1-.153-.045.613.613 0 0 1-.234-.224.563.563 0 0 1-.09-.306v-.02a.32.32 0 0 1 .04-.171.142.142 0 0 1 .111-.074c.047-.007.1.005.159.037a.52.52 0 0 1 .213.209c.05.088.076.19.075.306Zm.462-.115c.141.077.213.2.216.375l-.002.477-.153-.082.002-.468a.238.238 0 0 0-.028-.117.228.228 0 0 0-.09-.081c-.063-.033-.108-.027-.138.015l-.001.514-.153-.081.002-.722.143.076.004.086c.051-.037.117-.034.198.009Zm1.803.965c.075.04.131.093.168.156a.45.45 0 0 1 .055.225l-.002.473-.151-.08.001-.47a.224.224 0 0 0-.028-.115.234.234 0 0 0-.094-.084c-.034-.018-.063-.023-.085-.015-.021.008-.037.025-.046.054l-.001.495-.153-.082.002-.475a.212.212 0 0 0-.122-.193c-.06-.032-.104-.029-.13.01l-.001.524-.153-.082.002-.722.144.077.005.078c.048-.033.113-.028.195.015a.39.39 0 0 1 .186.211c.05-.047.119-.048.208 0Z" fill="#135687"/><path fill-rule="evenodd" clip-rule="evenodd" d="M100.007 62.194 80.871 72.492 42.347 51.896l19.136-10.298 38.524 20.596Z" fill="#02ECF1"/><path fill-rule="evenodd" clip-rule="evenodd" d="M74.322 46.596c1.719.92 3.116.182 3.121-1.647.006-1.83-1.382-4.056-3.1-4.975-1.72-.919-3.117-.182-3.123 1.648-.005 1.828 1.382 4.055 3.102 4.974Zm-30.228-3.469L76.197 60.29l-6.33-13.591c-.317-.678-.826-1.205-1.336-1.478-.502-.268-1.005-.29-1.326.035l-2.531 2.56c-.322.327-.824.304-1.325.036-.536-.286-1.07-.853-1.378-1.572l-6.367-14.881c-.312-.727-.845-1.29-1.377-1.574-.565-.302-1.13-.293-1.43.16l-8.703 13.142Zm-1.62-32.904L81 30.819l-.128 41.673-38.524-20.596.128-41.673Z" fill="#FFCA00"/><path fill-rule="evenodd" clip-rule="evenodd" d="M54.227 29.825c.532.285 1.065.847 1.377 1.574l6.367 14.88c.308.72.842 1.286 1.378 1.573.5.268 1.004.29 1.325-.035l2.531-2.56c.32-.326.824-.304 1.326-.036.51.273 1.02.8 1.335 1.478l6.33 13.591-32.102-17.163 8.704-13.142c.3-.453.864-.462 1.428-.16Zm20.115 10.149c1.72.92 3.107 3.146 3.102 4.975-.006 1.829-1.403 2.566-3.122 1.647-1.72-.919-3.107-3.145-3.102-4.974.006-1.83 1.403-2.567 3.122-1.648Z" fill="#fff"/><path fill-rule="evenodd" clip-rule="evenodd" d="m79.25 73.398-3.508 1.887L37.22 54.69l3.507-1.888L79.25 73.398Z" fill="#02ECF1"/><path fill-rule="evenodd" clip-rule="evenodd" d="m39.27 52.243.526.846-.227.12-.527-.846c-.064-.1-.063-.207 0-.241.032-.017.073-.01.114.011a.31.31 0 0 1 .113.11Zm8.528 4.51a.31.31 0 0 1 .113.11c.063.102.063.21 0 .242l-.531.28-.228.12-.53.28c-.031.017-.072.012-.113-.01a.32.32 0 0 1-.114-.112c-.062-.099-.062-.207 0-.241l.531-.28.228-.12.53-.28c.032-.016.073-.01.114.011Z" fill="#fff"/><path fill-rule="evenodd" clip-rule="evenodd" d="m48.114 58.487.005-1.417a.597.597 0 0 0-.297-.474l-1.332-.712c-.163-.088-.297-.017-.297.156l-.005 1.418c0 .175.133.387.296.474l1.332.713c.164.087.298.017.298-.158Zm-3.532-1.888.005-1.417a.596.596 0 0 0-.296-.474l-1.331-.712c-.165-.088-.299-.018-.3.156l-.003 1.417a.598.598 0 0 0 .296.476l1.332.712c.163.087.297.017.297-.158Zm-3.827-2.046.005-1.417a.597.597 0 0 0-.295-.474l-1.332-.712c-.165-.088-.299-.018-.299.156l-.004 1.417a.6.6 0 0 0 .296.476l1.332.712c.163.087.297.017.297-.158Zm-3.519-5.5L75.76 69.649l-.018 5.636L37.22 54.69l.017-5.637Z" fill="#fff"/><path fill-rule="evenodd" clip-rule="evenodd" d="M40.44 52.82a.31.31 0 0 1 .113.11c.062.1.062.208 0 .241l-.53.28-.228.12-.53.28c-.032.017-.073.012-.114-.01a.31.31 0 0 1-.114-.111c-.063-.1-.063-.208.001-.241l.53-.28.228-.12.53-.28c.032-.017.072-.012.114.01Z" fill="#fff"/><path fill-rule="evenodd" clip-rule="evenodd" d="m40.55 54.296-.527-.846.53-.28c.063-.032.063-.14.001-.24a.32.32 0 0 0-.114-.112c-.04-.021-.082-.027-.113-.01l-.53.28-.527-.846a.313.313 0 0 0-.114-.11c-.04-.022-.082-.027-.113-.01-.064.033-.064.14 0 .24l.526.846-.53.28c-.064.033-.064.14 0 .24a.31.31 0 0 0 .112.112c.041.022.083.027.114.01l.53-.28.527.846c.031.05.072.089.113.11.04.023.082.028.114.011.062-.033.063-.14 0-.241Zm-.085-1.634c.163.087.295.3.295.474l-.005 1.417c0 .175-.134.245-.297.158l-1.332-.712a.598.598 0 0 1-.296-.476l.004-1.417c0-.174.134-.244.299-.156l1.331.712Z" fill="#EFEFEF"/><path fill-rule="evenodd" clip-rule="evenodd" d="M40.55 54.296c.061.101.06.209-.001.242-.032.017-.074.011-.115-.01a.308.308 0 0 1-.112-.112l-.527-.845.227-.12.527.845Zm7.357 3.934c.063.101.063.209 0 .241-.032.017-.073.012-.114-.01a.318.318 0 0 1-.114-.111l-.527-.846.228-.12.527.846Z" fill="#fff"/><path fill-rule="evenodd" clip-rule="evenodd" d="m47.907 58.23-.527-.846.53-.28c.065-.032.065-.14.001-.241a.31.31 0 0 0-.112-.11c-.041-.022-.082-.028-.114-.012l-.53.28-.528-.845a.312.312 0 0 0-.112-.11c-.042-.022-.083-.027-.115-.011-.062.034-.062.142 0 .241l.527.845-.53.28c-.063.035-.063.142-.002.242.032.05.073.09.114.111.041.022.082.027.113.01l.53-.28.528.845c.031.051.072.09.114.112.04.022.081.027.113.01.063-.033.064-.14 0-.242Zm-.085-1.634c.165.088.297.3.297.474l-.005 1.417c0 .175-.133.245-.298.157l-1.332-.712a.597.597 0 0 1-.296-.475l.005-1.417c0-.173.134-.244.297-.156l1.332.712Z" fill="#EFEFEF"/><path fill-rule="evenodd" clip-rule="evenodd" d="m46.627 56.177.527.845-.228.12-.527-.845c-.062-.1-.062-.207.001-.242.032-.016.073-.01.114.012.04.022.082.06.113.11Z" fill="#fff"/><path fill-rule="evenodd" clip-rule="evenodd" d="m44.377 56.341-.528-.845.531-.28c.062-.033.063-.14 0-.241a.32.32 0 0 0-.113-.11c-.041-.022-.082-.028-.113-.011l-.53.28-.527-.846a.316.316 0 0 0-.114-.11c-.04-.022-.082-.027-.113-.01-.064.033-.064.14 0 .24l.526.846-.53.28c-.064.033-.065.14-.001.24.03.051.072.09.113.112.041.022.083.027.114.01l.53-.28.527.846c.03.05.072.089.113.11.04.022.082.028.114.01.062-.032.062-.14 0-.24Zm-.086-1.633c.164.087.296.3.296.474l-.005 1.417c0 .175-.134.245-.297.158l-1.332-.712a.598.598 0 0 1-.297-.476l.005-1.417c0-.174.134-.244.299-.156l1.331.712Z" fill="#EFEFEF"/><path fill-rule="evenodd" clip-rule="evenodd" d="M44.376 56.342c.062.101.062.209 0 .242-.032.016-.074.011-.115-.01a.31.31 0 0 1-.112-.112l-.528-.845.228-.12.527.845Z" fill="#fff"/><path fill-rule="evenodd" clip-rule="evenodd" d="M44.267 54.865a.32.32 0 0 1 .113.11c.062.102.062.21 0 .242l-.531.28-.228.12-.53.28c-.031.017-.072.012-.114-.01a.311.311 0 0 1-.113-.111c-.063-.1-.063-.208.001-.242l.53-.28.228-.12.53-.28c.032-.016.072-.01.114.011Z" fill="#fff"/><path fill-rule="evenodd" clip-rule="evenodd" d="m43.096 54.29.527.845-.227.12-.528-.846c-.063-.1-.063-.208.001-.241.031-.017.073-.011.114.01a.34.34 0 0 1 .113.111Z" fill="#fff"/><path fill-rule="evenodd" clip-rule="evenodd" d="m74.408 75.971-6.034 3.247-38.523-20.596 6.034-3.246L74.407 75.97Z" fill="#02ECF1"/><path fill-rule="evenodd" clip-rule="evenodd" d="M62.75 71.983v-.22a.593.593 0 0 0-.032-.22.246.246 0 0 0-.112-.122c-.05-.027-.087-.027-.11.001-.024.028-.036.085-.038.17v.22c0 .09.01.163.035.221a.24.24 0 0 0 .11.126c.05.026.087.027.11-.003.024-.028.037-.086.037-.173Zm.08-.47a.767.767 0 0 1 .073.346v.167c0 .14-.025.232-.074.278-.05.044-.125.039-.226-.015a.517.517 0 0 1-.221-.222.751.751 0 0 1-.077-.349v-.168c.001-.14.027-.23.075-.275.05-.043.125-.039.227.016a.524.524 0 0 1 .223.221Z" fill="#135687"/><path fill-rule="evenodd" clip-rule="evenodd" d="M62.606 71.421a.245.245 0 0 1 .112.123.589.589 0 0 1 .033.22v.22c-.001.087-.014.144-.038.172-.023.03-.06.03-.11.004a.246.246 0 0 1-.11-.126.583.583 0 0 1-.035-.222v-.22c.002-.085.014-.142.038-.17.023-.028.06-.028.11 0Zm-.731-.137a.29.29 0 0 1 .134.152l-.001.32c-.03.039-.075.042-.136.01a.266.266 0 0 1-.116-.124.43.43 0 0 1-.042-.194c0-.083.015-.137.043-.164.027-.028.067-.028.118 0Zm-3.032-.232a.238.238 0 0 1 .111.123.558.558 0 0 1 .035.219v.22c-.003.087-.014.144-.038.174-.023.028-.06.03-.11.003a.243.243 0 0 1-.11-.127.575.575 0 0 1-.035-.222v-.22c0-.085.014-.141.038-.168.023-.028.06-.028.109-.002Z" fill="#F9F9FA"/><path fill-rule="evenodd" clip-rule="evenodd" d="M58.782 70.03v-.137l-.084-.045c-.056-.03-.099-.042-.127-.036-.029.006-.043.027-.043.066 0 .031.01.06.03.09a.2.2 0 0 0 .077.07c.03.016.059.023.085.021a.077.077 0 0 0 .062-.03Zm.15.117c0 .064.008.12.026.169v.01l-.155-.083a.36.36 0 0 1-.018-.076c-.049.027-.108.022-.179-.015A.448.448 0 0 1 58.44 70a.34.34 0 0 1-.065-.188c0-.077.027-.121.081-.135.054-.011.132.01.23.062l.095.05v-.046a.2.2 0 0 0-.029-.106.224.224 0 0 0-.09-.083c-.034-.018-.063-.023-.085-.017-.023.006-.034.024-.034.053l-.151-.081c0-.04.011-.07.036-.092a.137.137 0 0 1 .101-.027c.043.003.09.017.142.045.08.043.142.1.19.167a.39.39 0 0 1 .072.218l-.001.326Z" fill="#135687"/><path fill-rule="evenodd" clip-rule="evenodd" d="M58.746 70.077a.181.181 0 0 1-.097-.023.227.227 0 0 1-.088-.075.159.159 0 0 1-.033-.096c0-.042.016-.065.048-.071.032-.006.08.007.145.04l.095.047v.147a.088.088 0 0 1-.07.031Z" fill="#F9F9FA"/><path fill-rule="evenodd" clip-rule="evenodd" d="M58.246 71.385v-.318a.296.296 0 0 0-.133-.154c-.051-.027-.09-.027-.118 0-.028.029-.042.083-.043.166a.43.43 0 0 0 .042.194.273.273 0 0 0 .116.124c.06.032.106.027.136-.012Zm.017-.51.137.073-.002.7c0 .094-.028.155-.084.179-.055.026-.13.013-.224-.037a.595.595 0 0 1-.145-.11.578.578 0 0 1-.109-.145l.073-.059a.44.44 0 0 0 .173.182c.05.026.09.033.12.02.029-.015.043-.05.043-.106v-.048c-.043.029-.102.023-.175-.016a.478.478 0 0 1-.195-.205.676.676 0 0 1-.074-.32c0-.11.025-.188.075-.228.05-.04.116-.039.198.005a.439.439 0 0 1 .182.183l.007-.068Z" fill="#135687"/><path fill-rule="evenodd" clip-rule="evenodd" d="M58.113 70.913c.06.033.106.086.134.155l-.001.317c-.03.04-.075.045-.136.012a.274.274 0 0 1-.116-.124.43.43 0 0 1-.042-.194c0-.082.015-.136.043-.165.027-.028.067-.028.118 0Zm-.8-.135c.032-.005.08.008.145.04l.094.047v.145c-.015.022-.04.03-.069.034a.21.21 0 0 1-.099-.025.244.244 0 0 1-.088-.074.157.157 0 0 1-.032-.097c0-.04.016-.064.048-.07Z" fill="#F9F9FA"/><path fill-rule="evenodd" clip-rule="evenodd" d="m57.336 69.06-.184-.077.048-.191.183.075-.047.192Z" fill="#135687"/><path fill-rule="evenodd" clip-rule="evenodd" d="m57.383 68.867-.047.192-.184-.076.048-.191.183.075Z" fill="#F9F9FA"/><path fill-rule="evenodd" clip-rule="evenodd" d="M55.02 69.66v-.135l-.084-.045c-.057-.03-.1-.043-.127-.038-.029.006-.043.028-.043.066 0 .032.01.062.03.09a.215.215 0 0 0 .162.092c.027-.002.047-.01.061-.03Zm.15.117c0 .064.008.122.024.168v.012l-.155-.083a.496.496 0 0 1-.017-.077c-.048.029-.108.024-.178-.014a.459.459 0 0 1-.166-.15.34.34 0 0 1-.065-.188c0-.079.027-.123.081-.135.054-.013.131.009.23.062l.095.05v-.048a.194.194 0 0 0-.029-.104.228.228 0 0 0-.09-.084c-.034-.017-.063-.024-.085-.016-.023.006-.034.022-.034.05l-.153-.08c0-.04.013-.07.038-.091a.144.144 0 0 1 .101-.028.534.534 0 0 1 .332.212c.047.068.07.14.072.219l-.001.325Z" fill="#135687"/><path fill-rule="evenodd" clip-rule="evenodd" d="M54.814 69.442c.032-.005.08.008.145.04l.095.049v.144c-.017.021-.04.03-.07.033a.243.243 0 0 1-.185-.098.163.163 0 0 1-.033-.097c0-.04.016-.065.048-.071Zm-.512-2.042v.01l-.34-.183c.008-.06.028-.1.06-.12.032-.019.07-.016.118.01a.282.282 0 0 1 .115.112.39.39 0 0 1 .047.171Z" fill="#F9F9FA"/><path fill-rule="evenodd" clip-rule="evenodd" d="m53.822 68.634-.15-.08-.036.19.138.074v.106l-.158-.085-.048.249-.106-.057.05-.248-.14-.075-.05.248-.105-.056.048-.248-.144-.077v-.106l.164.088.036-.19-.152-.082v-.105l.173.092.049-.252.104.056-.049.252.141.076.05-.253.104.056-.05.252.131.07v.105Z" fill="#135687"/><path fill-rule="evenodd" clip-rule="evenodd" d="m53.572 68.69-.182-.075.048-.191.182.075-.048.192Z" fill="#135687"/><path fill-rule="evenodd" clip-rule="evenodd" d="m53.39 68.615.048-.191.182.075-.048.192-.182-.076Zm-.191-1.805v.01l-.34-.182c.008-.061.028-.101.06-.12.032-.02.071-.016.118.008a.291.291 0 0 1 .116.114c.028.05.043.106.046.17Zm-5.526-2.605a.34.34 0 0 1-.14-.147.462.462 0 0 1-.051-.22c0-.09.017-.152.053-.181.035-.03.082-.028.138.002.06.031.106.08.141.149a.47.47 0 0 1 .052.22c0 .089-.017.15-.051.18-.036.03-.082.029-.142-.003Z" fill="#F9F9FA"/><path fill-rule="evenodd" clip-rule="evenodd" d="M47.815 64.207c.034-.03.05-.09.051-.179a.469.469 0 0 0-.052-.22.335.335 0 0 0-.14-.15c-.057-.03-.104-.03-.14-.002-.035.03-.052.091-.052.181 0 .08.016.154.051.22a.341.341 0 0 0 .14.148c.06.032.106.032.142.002Zm.083-.428a.63.63 0 0 1 .084.317v.01a.33.33 0 0 1-.037.168.14.14 0 0 1-.11.072.275.275 0 0 1-.162-.04.55.55 0 0 1-.223-.222.621.621 0 0 1-.086-.315v-.009c0-.07.015-.126.04-.17a.144.144 0 0 1 .11-.072c.047-.005.1.007.16.038.093.05.168.125.224.223Z" fill="#26272C"/><path fill-rule="evenodd" clip-rule="evenodd" d="M46.23 63.084v.01l-.34-.183c.008-.06.028-.1.06-.12.03-.02.07-.016.117.009a.278.278 0 0 1 .115.113.38.38 0 0 1 .048.172Zm-2.51.135c.06.032.106.085.136.155l-.002.317c-.03.04-.076.043-.137.01a.275.275 0 0 1-.115-.123.43.43 0 0 1-.042-.194c0-.083.015-.136.043-.165.028-.027.066-.028.117 0Zm-3.928-3.774a.32.32 0 0 1 .14.15c.036.068.053.14.053.22 0 .088-.018.148-.053.178-.034.03-.081.03-.14-.002a.332.332 0 0 1-.14-.147.466.466 0 0 1-.052-.22c0-.09.018-.152.053-.181.035-.03.08-.029.139.002Zm-.794 1.475.048-.192.182.076-.047.192-.183-.077Z" fill="#F9F9FA"/><path fill-rule="evenodd" clip-rule="evenodd" d="m39.43 60.94-.15-.08-.037.19.139.073v.105l-.159-.084-.047.249-.105-.056.048-.249-.14-.075-.05.248-.104-.056.048-.248-.144-.078v-.105l.164.088.036-.19-.151-.081v-.105l.17.091.05-.252.106.056-.05.252.14.076.05-.253.104.056-.049.252.13.07v.105Z" fill="#135687"/><path fill-rule="evenodd" clip-rule="evenodd" d="m39.181 60.996-.183-.077.048-.19.182.075-.047.192Z" fill="#135687"/><path fill-rule="evenodd" clip-rule="evenodd" d="M38.047 58.54a.244.244 0 0 1 .098.096.32.32 0 0 1 .041.145v.012l-.291-.156c.007-.052.024-.086.05-.104.025-.018.06-.015.102.008Zm-.792.97a.249.249 0 0 1 .112.123.583.583 0 0 1 .034.219v.22c-.002.088-.015.144-.038.174-.024.028-.06.029-.109.003a.247.247 0 0 1-.112-.128.573.573 0 0 1-.035-.222v-.22c.002-.084.015-.14.038-.167.024-.028.06-.028.11-.002Zm-.731-.14c.06.033.106.086.135.156v.317c-.03.04-.077.044-.138.011a.278.278 0 0 1-.115-.123.424.424 0 0 1-.041-.194c0-.082.013-.137.042-.166.028-.027.066-.027.117 0Z" fill="#F9F9FA"/><path fill-rule="evenodd" clip-rule="evenodd" d="M36.335 58.028v-.136l-.082-.044c-.056-.03-.099-.042-.127-.037-.029.006-.043.027-.043.067 0 .031.01.06.03.089.02.03.045.053.077.07.03.016.058.024.085.021.027 0 .047-.01.06-.03Zm.152.118c0 .065.008.12.025.169v.01l-.156-.083a.533.533 0 0 1-.017-.075c-.048.027-.107.022-.178-.016a.446.446 0 0 1-.166-.15.33.33 0 0 1-.065-.188c0-.077.027-.122.081-.135.054-.012.132.009.23.062l.094.05v-.047a.2.2 0 0 0-.028-.105.226.226 0 0 0-.09-.083c-.034-.019-.064-.024-.085-.017-.023.006-.034.024-.034.052l-.153-.081c0-.04.013-.07.039-.091.024-.022.058-.03.1-.028.043.004.09.018.142.046a.55.55 0 0 1 .19.166.39.39 0 0 1 .072.218l-.001.326Z" fill="#135687"/><path fill-rule="evenodd" clip-rule="evenodd" d="M36.132 57.812c.032-.007.08.006.145.039l.093.047v.147c-.014.02-.037.031-.068.032a.233.233 0 0 1-.186-.098.159.159 0 0 1-.033-.096c0-.043.016-.065.049-.071Zm-1.162-.751v.012l-.29-.155c.008-.051.023-.087.049-.105.027-.017.06-.014.102.008a.24.24 0 0 1 .098.095c.024.04.038.09.041.145Z" fill="#F9F9FA"/><path fill-rule="evenodd" clip-rule="evenodd" d="M34.97 57.073v-.012a.309.309 0 0 0-.04-.145.243.243 0 0 0-.099-.095c-.04-.022-.075-.026-.102-.008-.025.018-.04.053-.048.105l.29.155Zm.151.134v.066l-.444-.238a.362.362 0 0 0 .055.172.333.333 0 0 0 .124.117c.07.038.127.038.171.001l.082.128a.145.145 0 0 1-.11.043.358.358 0 0 1-.152-.047.61.61 0 0 1-.324-.529v-.02a.32.32 0 0 1 .04-.172.142.142 0 0 1 .11-.073c.048-.007.1.004.16.036a.518.518 0 0 1 .212.209c.051.09.076.193.076.307Zm-2.007-.878c.028-.029.044-.082.044-.165a.426.426 0 0 0-.044-.197.281.281 0 0 0-.12-.129c-.05-.026-.09-.026-.119 0-.029.027-.044.082-.044.165 0 .075.015.14.043.197.028.058.069.1.12.128.052.028.092.028.12 0Zm.103-.407a.62.62 0 0 1 .093.3v.037a.326.326 0 0 1-.04.17.148.148 0 0 1-.11.073.302.302 0 0 1-.166-.044.615.615 0 0 1-.314-.541v-.008c0-.07.013-.127.04-.17a.137.137 0 0 1 .11-.072.296.296 0 0 1 .164.041.58.58 0 0 1 .223.214Z" fill="#135687"/><path fill-rule="evenodd" clip-rule="evenodd" d="M32.994 55.839c.05.027.09.07.12.129a.42.42 0 0 1 .044.197c0 .083-.016.136-.044.164-.028.027-.068.027-.12 0a.283.283 0 0 1-.12-.128.436.436 0 0 1-.043-.198c0-.083.015-.138.044-.164.03-.027.07-.026.119 0Zm-1.152-.126a.289.289 0 0 1-.135-.157v-.32c.03-.04.073-.043.135-.01.051.027.09.069.116.125.027.057.04.121.04.194 0 .084-.014.14-.041.167-.029.026-.067.026-.115 0Z" fill="#F9F9FA"/><path fill-rule="evenodd" clip-rule="evenodd" d="M36.298 55.625v-.013a.308.308 0 0 0-.04-.145.241.241 0 0 0-.1-.094c-.04-.022-.074-.024-.101-.008-.025.017-.041.053-.048.105l.29.155Zm.15.133v.067l-.443-.238a.365.365 0 0 0 .178.29c.071.038.128.038.172.002l.082.126a.14.14 0 0 1-.11.043.332.332 0 0 1-.152-.046.613.613 0 0 1-.234-.223.564.564 0 0 1-.09-.307v-.02c0-.072.013-.13.04-.172a.145.145 0 0 1 .11-.074.26.26 0 0 1 .16.038c.09.05.161.119.212.208a.62.62 0 0 1 .076.306Z" fill="#135687"/><path fill-rule="evenodd" clip-rule="evenodd" d="M36.298 55.613v.012l-.29-.155c.007-.052.023-.087.048-.105.027-.016.062-.014.102.008a.24.24 0 0 1 .099.095c.024.04.038.09.04.145Zm5.742 5.451c0-.089.071-.096.214-.02l.09.049v.148a.084.084 0 0 1-.071.04.187.187 0 0 1-.103-.024.248.248 0 0 1-.094-.083.19.19 0 0 1-.036-.11Z" fill="#F9F9FA"/><path fill-rule="evenodd" clip-rule="evenodd" d="m34.138 53.926-.279.334.281.64-.185-.098-.195-.462-.198.252-.185-.1.284-.338-.274-.629.183.098.19.453.194-.248.184.098Zm.637.262-.004 1.026-.198-.082.004-1.026.198.082Zm.125 1.119.004-.721.198.08-.003.723-.199-.082Zm.105-.727a.204.204 0 0 1-.083-.077.172.172 0 0 1-.029-.094c0-.033.01-.054.03-.065.018-.011.046-.008.083.011a.208.208 0 0 1 .082.078c.02.032.03.063.03.096 0 .031-.01.054-.03.063-.019.011-.048.008-.083-.011Zm.369-.047-.002.591.048-.037.189-.124.182.098-.252.166.277.57-.177-.095-.2-.417-.067.038-.001.236-.153-.082.003-1.025.153.081Zm1.447 1.065a.576.576 0 0 1 .197.168.36.36 0 0 1 .074.207l-.153-.082a.174.174 0 0 0-.032-.095.235.235 0 0 0-.086-.078c-.034-.018-.06-.023-.082-.018-.021.005-.033.02-.033.049 0 .024.01.049.03.073.02.025.06.06.118.105.061.046.108.09.142.126a.496.496 0 0 1 .076.11.28.28 0 0 1 .023.111c0 .067-.026.106-.075.118-.051.014-.118 0-.2-.044a.586.586 0 0 1-.25-.255.334.334 0 0 1-.036-.141l.149.08c.001.04.015.075.04.11a.282.282 0 0 0 .1.084c.04.022.07.03.091.025.022-.005.032-.02.032-.047a.132.132 0 0 0-.033-.084.667.667 0 0 0-.111-.099 1.118 1.118 0 0 1-.13-.114c-.076-.08-.114-.156-.114-.232 0-.061.026-.1.075-.116.048-.015.112-.002.188.039Zm-4.864.114c.027-.028.041-.083.041-.167a.449.449 0 0 0-.04-.194.264.264 0 0 0-.116-.125c-.062-.033-.106-.03-.134.01l-.001.32a.288.288 0 0 0 .135.157c.048.025.086.025.115 0Zm.123-.393c.047.091.07.194.07.311v.009c0 .111-.025.189-.072.23-.048.04-.112.04-.192-.004a.452.452 0 0 1-.18-.174v.343l-.153-.082.003-1 .141.076.006.077c.045-.033.106-.03.182.01a.46.46 0 0 1 .195.204Zm1.822 1.611.003-.722.198.082-.003.721-.198-.081Zm.104-.727a.212.212 0 0 1-.083-.076.18.18 0 0 1-.027-.093c0-.033.01-.056.028-.067.02-.011.048-.006.083.013a.198.198 0 0 1 .113.175c0 .03-.01.05-.03.062-.02.01-.047.006-.084-.014Zm.426-.04-.004 1.024-.198-.082.004-1.024.198.082Zm1.151.929c.141.076.213.202.215.374l-.001.477-.153-.082.002-.467a.224.224 0 0 0-.028-.116.218.218 0 0 0-.09-.081c-.063-.034-.108-.03-.14.014v.513l-.152-.08.002-.722.143.076.004.086c.051-.037.116-.036.198.008Zm1.803.964a.403.403 0 0 1 .222.381l-.001.474-.153-.082.001-.469a.223.223 0 0 0-.026-.115.241.241 0 0 0-.094-.082c-.035-.018-.063-.024-.085-.017a.084.084 0 0 0-.046.054l-.001.495-.153-.082.002-.475a.21.21 0 0 0-.122-.191c-.062-.034-.104-.03-.13.01l-.001.522-.153-.082.002-.722.144.077.004.078c.047-.034.114-.028.196.015a.39.39 0 0 1 .186.211c.05-.047.119-.047.208 0Z" fill="#135687"/><path fill-rule="evenodd" clip-rule="evenodd" d="m39.456 58.927-.317.442v.36l-.12-.064v-.36l-.313-.78.139.075.236.615.238-.361.137.073Zm.476 1.065c.035-.03.052-.09.053-.178a.468.468 0 0 0-.052-.22.339.339 0 0 0-.141-.15c-.058-.03-.104-.03-.139-.002-.035.03-.053.091-.053.182 0 .08.017.153.052.22.034.066.08.115.14.147.059.032.106.032.14.001Zm.084-.427c.057.1.085.205.084.318v.008c0 .07-.013.126-.038.168a.135.135 0 0 1-.11.073.27.27 0 0 1-.16-.04.553.553 0 0 1-.224-.221.612.612 0 0 1-.085-.316v-.009c0-.07.013-.127.04-.17a.14.14 0 0 1 .11-.072c.046-.005.1.007.159.039a.573.573 0 0 1 .224.222Zm.762.318-.002.722-.11-.059-.002-.071c-.045.033-.111.024-.199-.023a.412.412 0 0 1-.165-.154.46.46 0 0 1-.057-.23l.001-.47.116.062-.002.466c0 .11.042.188.126.233.089.047.148.043.177-.011l.001-.526.116.061Zm.766.397a.519.519 0 0 1 .27.405l-.11-.058a.295.295 0 0 0-.05-.141.3.3 0 0 0-.11-.104c-.06-.032-.105-.034-.137-.006-.033.028-.049.084-.05.17v.024c0 .083.016.156.048.216.033.063.078.11.139.142.04.022.076.028.107.019.031-.01.048-.035.053-.073l.109.058a.143.143 0 0 1-.04.097.134.134 0 0 1-.1.036.27.27 0 0 1-.13-.036.546.546 0 0 1-.22-.216.607.607 0 0 1-.08-.313v-.02c0-.071.01-.127.035-.17a.141.141 0 0 1 .105-.07.26.26 0 0 1 .161.04Zm.799.961.001-.148-.09-.049c-.143-.076-.214-.069-.214.02a.19.19 0 0 0 .036.11.248.248 0 0 0 .094.083c.036.02.07.027.103.025a.083.083 0 0 0 .07-.04Zm.116.096c0 .066.009.123.024.17v.01l-.122-.064a.343.343 0 0 1-.015-.084c-.055.03-.119.026-.194-.014a.457.457 0 0 1-.165-.15.334.334 0 0 1-.063-.186c0-.075.027-.118.081-.132.054-.013.129.006.226.058l.113.06v-.055a.226.226 0 0 0-.035-.123.28.28 0 0 0-.107-.095c-.042-.023-.076-.03-.104-.023-.029.008-.043.026-.043.057l-.116-.062c0-.036.012-.064.036-.084a.133.133 0 0 1 .099-.027.329.329 0 0 1 .136.042.502.502 0 0 1 .183.162.38.38 0 0 1 .067.207v.333Zm.501-.301a.396.396 0 0 1 .217.375l-.002.477-.116-.062.002-.477a.276.276 0 0 0-.034-.133.256.256 0 0 0-.103-.093.15.15 0 0 0-.099-.022.105.105 0 0 0-.067.05l-.001.513-.116-.062.002-.721.11.059.003.093c.053-.043.12-.041.204.003Zm1.557.846-.2.616-.093-.05-.164-.634-.163.46-.093-.05-.195-.827.115.062.133.613.158-.458.094.05.16.639.132-.483.116.062Zm.56 1.023.003-.722.15.062-.003.722-.15-.062Zm.083-.764a.161.161 0 0 1-.066-.063.143.143 0 0 1-.024-.077c0-.026.008-.045.024-.054.015-.01.037-.008.066.008a.16.16 0 0 1 .066.063.16.16 0 0 1 .022.078c0 .026-.007.044-.022.053-.015.01-.037.008-.066-.008Zm.38.113-.002.175.126.067v.096l-.126-.067-.001.448c0 .028.005.054.017.074.01.02.03.038.057.053a.314.314 0 0 0 .056.02v.102a.486.486 0 0 1-.09-.036.28.28 0 0 1-.117-.112.326.326 0 0 1-.04-.165l.002-.446-.124-.067V62.3l.125.067v-.175l.116.062Zm.69.839v-.009a.392.392 0 0 0-.047-.171.285.285 0 0 0-.116-.114c-.047-.025-.087-.027-.118-.008-.03.02-.05.06-.06.12l.341.182Zm.116.114v.05l-.46-.245a.427.427 0 0 0 .058.204c.038.064.084.11.142.141a.212.212 0 0 0 .105.03.13.13 0 0 0 .074-.033l.071.1c-.058.06-.143.061-.256 0a.578.578 0 0 1-.224-.216.576.576 0 0 1-.087-.303v-.023a.33.33 0 0 1 .04-.172.147.147 0 0 1 .108-.074.243.243 0 0 1 .15.032.505.505 0 0 1 .206.203c.05.088.073.19.073.306Zm.957.165-.275.689c-.043.096-.11.12-.203.07l-.02-.012-.044-.033v-.099l.03.018c.04.021.072.03.093.025.023-.005.04-.027.054-.064l.027-.06-.24-.844.126.068.168.632.16-.456.124.066Zm1.358.726-.002.722-.11-.06-.003-.071c-.045.033-.111.024-.2-.023a.416.416 0 0 1-.164-.154.457.457 0 0 1-.056-.229l.001-.47.116.061-.001.467c0 .11.04.187.125.232.087.047.147.043.177-.01l.002-.527.115.062Zm.452.228a.19.19 0 0 1 .051.038v.114a.633.633 0 0 0-.057-.034c-.076-.041-.127-.034-.154.021l-.002.511-.115-.062.002-.721.111.06.003.085c.038-.044.092-.049.161-.011Zm.634.178v.174l.126.069v.096l-.127-.068-.001.448c0 .028.005.054.016.073.012.022.031.04.058.054a.28.28 0 0 0 .055.02v.101a.44.44 0 0 1-.089-.035.283.283 0 0 1-.117-.113.323.323 0 0 1-.04-.164l.002-.446-.123-.066v-.096l.124.066v-.175l.116.062Zm.691.839v-.01a.36.36 0 0 0-.048-.17.281.281 0 0 0-.114-.113c-.047-.025-.086-.028-.119-.01-.031.02-.051.06-.058.121l.339.182Zm.115.113v.051l-.459-.245a.41.41 0 0 0 .2.344.21.21 0 0 0 .105.031.133.133 0 0 0 .075-.032l.07.098c-.056.061-.143.062-.256.001a.577.577 0 0 1-.224-.216.573.573 0 0 1-.086-.303v-.023a.33.33 0 0 1 .04-.172.149.149 0 0 1 .108-.074.242.242 0 0 1 .15.032.497.497 0 0 1 .205.203.61.61 0 0 1 .072.305Zm.65.001-.223.24.228.486-.134-.072-.156-.353-.158.185-.135-.072.23-.242-.221-.476.134.072.148.343.152-.183.135.072Zm.28-.025v.175l.127.068v.096l-.127-.068-.002.448a.15.15 0 0 0 .017.074c.011.021.03.039.058.053a.3.3 0 0 0 .055.02v.102a.483.483 0 0 1-.09-.036.284.284 0 0 1-.116-.112.324.324 0 0 1-.04-.164l.002-.447-.123-.066v-.096l.123.066v-.174l.116.061Zm.697.245v.39c.05-.04.117-.039.2.006a.393.393 0 0 1 .215.374v.477l-.117-.062.002-.477a.247.247 0 0 0-.034-.134.247.247 0 0 0-.102-.092c-.038-.02-.07-.027-.098-.021a.099.099 0 0 0-.067.048l-.002.515-.117-.063.003-1.024.117.063Zm1.547 1.116a.19.19 0 0 1 .05.038v.114a.673.673 0 0 0-.056-.035c-.077-.04-.128-.033-.155.022l-.001.51-.118-.062.003-.722.113.06.002.087c.039-.045.093-.049.162-.012Zm.575.617v-.01a.39.39 0 0 0-.047-.172.282.282 0 0 0-.115-.112c-.048-.026-.086-.028-.119-.01-.03.02-.05.06-.06.12l.341.183Zm.116.113v.05l-.46-.245c.002.071.021.14.058.204.038.064.084.11.142.14a.21.21 0 0 0 .105.031.133.133 0 0 0 .075-.032l.07.098c-.056.062-.142.062-.255.002a.58.58 0 0 1-.225-.217.574.574 0 0 1-.085-.303v-.023c0-.072.013-.13.039-.172a.151.151 0 0 1 .107-.074.244.244 0 0 1 .152.032.501.501 0 0 1 .204.203.61.61 0 0 1 .073.306Zm1.303.047-.002.62.063-.047.211-.125.141.076-.265.16.294.578-.137-.073-.235-.46-.072.043-.001.252-.116-.062.003-1.024.116.062Zm.626 1.214a.167.167 0 0 1 .095.147c0 .028-.009.045-.024.054-.016.011-.04.006-.071-.01a.167.167 0 0 1-.07-.065.154.154 0 0 1-.022-.079c0-.027.008-.047.023-.057.016-.01.038-.006.07.01Z" fill="#26272C"/><path fill-rule="evenodd" clip-rule="evenodd" d="m57.584 69.003-.15-.08-.036.19.138.074v.106l-.158-.084-.048.247-.104-.056.047-.247-.14-.075-.048.246-.106-.056.049-.247-.145-.077v-.106l.165.087.035-.19-.152-.081v-.106l.173.093.049-.253.104.056-.049.252.142.076.048-.252.105.055-.049.253.13.07v.105Zm.252-.302v.382c.05-.034.113-.033.189.008.144.077.217.205.22.383l-.002.47-.153-.081.002-.465a.22.22 0 0 0-.03-.123.233.233 0 0 0-.09-.078c-.06-.032-.106-.028-.137.012l-.002.516-.15-.08.002-1.025.151.081Zm2.072 1.107-.001.382c.05-.035.112-.033.188.008.146.078.217.205.22.382l-.002.47-.152-.08v-.466a.225.225 0 0 0-.028-.122.248.248 0 0 0-.09-.078c-.062-.033-.107-.029-.137.013l-.001.516-.153-.082.003-1.024.153.081Zm.752.532v.173l.12.065v.12l-.12-.064-.001.403c0 .028.005.05.015.068a.14.14 0 0 0 .055.048.289.289 0 0 0 .052.022v.124a.392.392 0 0 1-.099-.038.315.315 0 0 1-.176-.3l.001-.409-.111-.06v-.12l.112.06v-.174l.153.081Zm.618 1.025v-.137l-.082-.044c-.056-.03-.099-.043-.127-.037-.029.006-.043.027-.043.067 0 .031.01.06.028.088.02.03.045.053.08.071.03.016.057.024.084.021a.073.073 0 0 0 .06-.03Zm.152.117c0 .065.008.12.025.169v.01l-.155-.083a.318.318 0 0 1-.017-.075c-.05.026-.11.021-.178-.016a.453.453 0 0 1-.169-.151.336.336 0 0 1-.063-.187c0-.077.028-.122.082-.135.053-.012.13.008.23.062l.093.05v-.047a.2.2 0 0 0-.03-.106.225.225 0 0 0-.088-.082c-.035-.02-.063-.024-.086-.018-.022.007-.033.025-.033.053l-.153-.081c0-.04.013-.07.038-.092a.135.135 0 0 1 .1-.027.36.36 0 0 1 .143.046.533.533 0 0 1 .189.166c.048.067.072.14.073.218l-.001.326Zm.578.273v-.32a.29.29 0 0 0-.133-.152c-.05-.027-.09-.028-.118 0-.028.027-.042.081-.042.164a.43.43 0 0 0 .041.194.264.264 0 0 0 .116.124c.06.032.106.03.136-.01Zm.017-.512.137.073-.002.701c0 .095-.028.154-.084.18-.055.024-.13.011-.224-.038a.602.602 0 0 1-.145-.111.556.556 0 0 1-.109-.144l.073-.06a.429.429 0 0 0 .173.182c.05.026.09.035.12.02.029-.013.043-.049.043-.105v-.049c-.043.03-.101.024-.175-.016a.478.478 0 0 1-.195-.204.669.669 0 0 1-.074-.319c0-.113.025-.188.076-.229.05-.04.115-.04.197.004a.438.438 0 0 1 .182.185l.007-.07Zm1.428.511-.003.974-.153-.082.003-.78-.224-.038v-.136l.357.051.02.01ZM34.557 57.896l-.001.382c.05-.035.113-.031.19.01.144.077.217.203.218.38l-.002.472-.152-.082v-.466a.214.214 0 0 0-.028-.12.232.232 0 0 0-.09-.08c-.061-.033-.107-.028-.136.014l-.002.516-.153-.082.004-1.025.152.081Zm8.567 5.404v-.136l-.082-.044c-.057-.03-.1-.042-.128-.038-.028.007-.043.03-.043.067 0 .031.01.062.028.09a.22.22 0 0 0 .165.092c.027-.002.047-.011.06-.031Zm.151.117c0 .065.008.122.025.169v.012l-.155-.083a.312.312 0 0 1-.017-.077c-.05.028-.11.023-.178-.014a.454.454 0 0 1-.167-.15.336.336 0 0 1-.064-.189c0-.078.027-.122.08-.134.054-.014.13.008.231.061l.093.05v-.048a.195.195 0 0 0-.029-.105.228.228 0 0 0-.089-.082c-.035-.018-.063-.025-.084-.016-.023.005-.035.022-.035.05l-.152-.081c0-.04.013-.07.037-.092a.153.153 0 0 1 .102-.026.388.388 0 0 1 .141.047.54.54 0 0 1 .19.165c.047.068.07.14.072.218v.325Zm.58.273v-.317a.303.303 0 0 0-.135-.155c-.05-.027-.089-.027-.117 0-.029.029-.043.083-.043.166a.43.43 0 0 0 .042.194.274.274 0 0 0 .116.123c.06.033.107.03.137-.01Zm.015-.51.137.073-.002.7c0 .094-.027.155-.082.18-.057.025-.13.013-.225-.038a.608.608 0 0 1-.146-.11.6.6 0 0 1-.108-.145l.072-.059a.439.439 0 0 0 .174.182c.05.027.09.033.12.02.028-.015.044-.049.044-.106v-.048c-.044.03-.103.023-.177-.016a.47.47 0 0 1-.193-.204.665.665 0 0 1-.075-.32c0-.112.026-.189.075-.228.05-.041.115-.04.197.004a.436.436 0 0 1 .182.183l.007-.068Zm2.755 1.607-.15-.08-.035.19.138.074v.105l-.158-.084-.048.248-.104-.056.047-.248-.14-.075-.049.248-.104-.056.047-.249-.144-.077v-.105l.164.088.036-.19-.152-.082v-.106l.172.093.05-.253.104.056-.05.253.142.075.049-.252.105.055-.05.253.13.07v.105Zm.253-.303-.001.382c.051-.035.113-.032.19.009.144.077.217.203.22.381l-.002.472-.153-.081.002-.467c0-.05-.01-.09-.03-.122a.23.23 0 0 0-.09-.079c-.06-.032-.106-.026-.137.014l-.002.516-.151-.081.003-1.025.151.08Zm1.511 1.098c.08.043.147.1.196.17a.35.35 0 0 1 .075.205l-.153-.081a.173.173 0 0 0-.032-.096.244.244 0 0 0-.086-.076c-.034-.018-.061-.025-.082-.02-.022.005-.032.023-.032.05 0 .025.009.05.028.074.02.024.06.058.12.104.06.047.106.089.14.126a.46.46 0 0 1 .076.11.258.258 0 0 1 .025.113c0 .065-.025.104-.077.117-.05.012-.117-.002-.199-.046a.607.607 0 0 1-.25-.254.334.334 0 0 1-.036-.14l.149.08a.206.206 0 0 0 .04.11.304.304 0 0 0 .1.084c.04.02.071.03.091.024.021-.005.031-.021.031-.047 0-.03-.01-.056-.032-.083a.732.732 0 0 0-.112-.1 1.09 1.09 0 0 1-.13-.114c-.076-.08-.114-.157-.113-.23 0-.064.025-.101.075-.117.05-.016.112-.003.188.037Zm.561.009-.002.382c.05-.035.112-.032.189.009a.404.404 0 0 1 .22.38l-.002.473-.153-.082.002-.466a.22.22 0 0 0-.03-.121.242.242 0 0 0-.09-.08c-.06-.032-.106-.026-.136.015l-.002.516-.152-.082.003-1.025.153.081Zm.752.531v.176l.12.064v.12l-.12-.064-.002.403c0 .027.006.05.015.068.01.018.029.033.056.048a.302.302 0 0 0 .053.021v.126a.488.488 0 0 1-.1-.038.316.316 0 0 1-.176-.3v-.41l-.11-.06v-.12l.111.06v-.176l.153.082Zm6.444 3.317-.001.382c.05-.036.112-.032.188.008.145.078.217.204.22.382l-.002.472-.153-.082.002-.466a.22.22 0 0 0-.03-.121.24.24 0 0 0-.09-.08c-.06-.033-.106-.027-.136.014l-.001.516-.153-.082.003-1.025.153.082Zm.752.531v.175l.12.064v.12l-.12-.064-.002.403c0 .027.006.05.016.069a.13.13 0 0 0 .055.047.266.266 0 0 0 .052.02v.127a.47.47 0 0 1-.1-.038.316.316 0 0 1-.175-.3l.001-.41-.111-.059v-.12l.112.06v-.176l.152.081Zm.618 1.025v-.136l-.082-.043c-.056-.03-.099-.043-.127-.038-.029.006-.043.028-.043.066 0 .031.008.061.028.09a.216.216 0 0 0 .164.092c.026-.003.047-.011.06-.031Zm.152.117c0 .065.008.122.025.169v.012l-.156-.083a.319.319 0 0 1-.017-.077c-.049.028-.109.023-.18-.015a.462.462 0 0 1-.166-.15.344.344 0 0 1-.063-.188c0-.078.027-.122.081-.134.054-.014.13.008.23.061l.094.05v-.048a.193.193 0 0 0-.03-.104.225.225 0 0 0-.088-.083c-.035-.018-.064-.025-.087-.017-.02.007-.032.023-.032.052l-.153-.082c0-.04.013-.07.037-.091a.15.15 0 0 1 .1-.028.528.528 0 0 1 .332.212c.049.07.072.14.074.22l-.001.324Zm-25.435-14.02-.149-.08-.037.19.139.074v.105l-.158-.084-.048.248-.105-.056.047-.248-.14-.075-.048.248-.105-.056.049-.248-.146-.078v-.105l.165.087.037-.189-.152-.081v-.106l.17.092.051-.252.105.056-.05.252.14.075.05-.252.105.056-.05.252.13.07v.105Z" fill="#135687"/><path fill-rule="evenodd" clip-rule="evenodd" d="m31.985 57.148-.184-.076.049-.191.183.076-.048.191Z" fill="#135687"/><path fill-rule="evenodd" clip-rule="evenodd" d="m31.801 57.072.049-.191.184.076-.05.191-.183-.076Zm1.426.828c.032-.004.08.008.145.041l.093.047v.145a.092.092 0 0 1-.07.033.243.243 0 0 1-.185-.098.165.165 0 0 1-.033-.098c0-.04.016-.064.05-.07Z" fill="#F9F9FA"/><path fill-rule="evenodd" clip-rule="evenodd" d="m33.43 58.117.001-.135-.082-.044c-.057-.03-.1-.042-.128-.038-.03.005-.044.028-.044.065 0 .032.01.063.03.091a.215.215 0 0 0 .163.092c.027-.002.046-.011.06-.03Zm.152.118c0 .065.008.122.025.168v.012l-.155-.083a.373.373 0 0 1-.018-.077c-.048.028-.108.024-.179-.014a.465.465 0 0 1-.166-.151.344.344 0 0 1-.063-.188c0-.078.027-.122.08-.134.055-.013.131.008.231.062l.094.05v-.049a.194.194 0 0 0-.03-.104.227.227 0 0 0-.089-.082c-.035-.02-.063-.025-.086-.018-.022.006-.032.023-.033.052l-.152-.082c0-.039.013-.07.037-.091a.142.142 0 0 1 .1-.028.53.53 0 0 1 .332.212c.048.07.072.141.073.22v.325Zm-1-2.747c.021.01.04.025.053.039v.152a.438.438 0 0 0-.062-.04c-.07-.037-.118-.034-.142.01l-.001.494-.153-.082.002-.722.146.078.004.084c.037-.044.088-.048.153-.013Zm3.346 3.964v-.135l-.082-.044c-.057-.03-.1-.042-.128-.038-.029.006-.043.028-.043.066 0 .032.01.062.03.091a.21.21 0 0 0 .078.069c.03.016.058.023.084.023.028-.003.047-.012.06-.032Zm.151.118c0 .065.008.121.025.168v.012l-.155-.083a.38.38 0 0 1-.017-.077c-.048.029-.108.024-.178-.014a.455.455 0 0 1-.167-.15.337.337 0 0 1-.064-.188c0-.079.027-.123.08-.135.054-.013.132.009.231.062l.093.05v-.049a.202.202 0 0 0-.027-.103.23.23 0 0 0-.09-.083c-.036-.019-.064-.025-.086-.017-.022.006-.034.023-.034.05l-.152-.08c0-.04.013-.07.037-.092a.152.152 0 0 1 .102-.027c.042.005.089.02.141.047a.542.542 0 0 1 .19.165c.047.069.07.14.072.219l-.001.325Z" fill="#135687"/><path fill-rule="evenodd" clip-rule="evenodd" d="M35.724 59.235c.032-.005.08.008.145.04l.094.047v.146c-.015.021-.038.03-.068.033a.206.206 0 0 1-.097-.024.24.24 0 0 1-.09-.074.164.164 0 0 1-.033-.097c0-.04.016-.065.049-.071Z" fill="#F9F9FA"/><path fill-rule="evenodd" clip-rule="evenodd" d="m33.324 53.491-.277.334.28.641-.184-.099-.196-.461-.197.251-.185-.099.284-.339-.274-.628.182.097.191.453.194-.247.182.097Zm4.862 5.301v-.012a.326.326 0 0 0-.04-.145.243.243 0 0 0-.099-.095c-.042-.023-.076-.026-.102-.008-.026.018-.042.053-.05.105l.291.155Zm.15.133v.067l-.444-.237c.005.06.023.119.056.17a.327.327 0 0 0 .124.119c.07.037.126.037.17 0l.081.128a.144.144 0 0 1-.107.043.368.368 0 0 1-.154-.048.61.61 0 0 1-.323-.527v-.02c0-.072.013-.13.039-.173a.15.15 0 0 1 .11-.074.266.266 0 0 1 .159.037.524.524 0 0 1 .214.21c.05.089.075.191.075.305Zm1.347 1.712v.382c.049-.035.111-.032.188.009.144.077.217.203.22.38l-.002.473-.153-.082.001-.466c0-.05-.01-.09-.029-.121a.24.24 0 0 0-.09-.08c-.061-.032-.106-.026-.136.015l-.002.516-.152-.082.003-1.026.152.082Z" fill="#135687"/><path fill-rule="evenodd" clip-rule="evenodd" d="M40.423 61.748c.032-.005.08.008.145.04l.093.048v.145a.1.1 0 0 1-.07.033.196.196 0 0 1-.096-.025.239.239 0 0 1-.088-.073.163.163 0 0 1-.034-.098c0-.04.017-.065.05-.07Z" fill="#F9F9FA"/><path fill-rule="evenodd" clip-rule="evenodd" d="M40.627 61.965v-.136l-.082-.043c-.056-.03-.1-.043-.128-.038-.03.005-.044.027-.044.065 0 .031.01.062.03.09a.214.214 0 0 0 .163.092c.027-.002.047-.01.06-.03Zm.151.117a.5.5 0 0 0 .026.169v.012l-.156-.083a.382.382 0 0 1-.018-.078c-.048.029-.108.024-.178-.014a.461.461 0 0 1-.167-.15.341.341 0 0 1-.063-.188c0-.078.027-.122.081-.134.054-.014.13.008.23.062l.094.05v-.05a.19.19 0 0 0-.03-.103.226.226 0 0 0-.09-.084c-.033-.017-.062-.024-.084-.016-.023.006-.033.023-.033.051l-.153-.08c0-.04.013-.07.037-.093a.144.144 0 0 1 .1-.027.53.53 0 0 1 .332.212c.047.069.072.14.074.22l-.002.324Zm.975-.338v.381c.049-.035.112-.03.188.01.145.077.218.204.219.38l-.002.472-.152-.081.001-.466c0-.05-.01-.09-.029-.121a.238.238 0 0 0-.09-.08c-.061-.033-.106-.027-.136.014l-.002.516-.152-.082.003-1.025.152.082Zm.753.53v.176l.12.064v.12l-.12-.064-.002.403c0 .027.006.05.015.069.01.017.028.033.055.047a.285.285 0 0 0 .054.021v.127a.504.504 0 0 1-.1-.039.317.317 0 0 1-.177-.3l.002-.41-.112-.059v-.12l.112.06v-.176l.153.081Zm2.092 1.646v-.22a.583.583 0 0 0-.034-.219.246.246 0 0 0-.111-.122c-.05-.027-.087-.027-.11 0-.024.028-.036.084-.038.169v.22a.555.555 0 0 0 .034.221.246.246 0 0 0 .113.128c.048.026.085.025.107-.004.025-.03.037-.085.04-.173Zm.077-.471c.049.094.074.21.074.345v.168c-.001.14-.025.233-.075.277-.05.044-.123.04-.224-.013a.521.521 0 0 1-.223-.223.764.764 0 0 1-.076-.348v-.169c0-.14.026-.231.076-.274.048-.045.123-.04.225.015a.524.524 0 0 1 .223.222Z" fill="#135687"/><path fill-rule="evenodd" clip-rule="evenodd" d="M44.452 63.358c.05.027.087.068.111.123a.586.586 0 0 1 .035.219l-.001.22c-.002.087-.014.143-.039.173-.022.028-.06.03-.107.004a.247.247 0 0 1-.113-.128.573.573 0 0 1-.035-.222v-.22c.003-.085.015-.14.038-.168.024-.028.061-.028.11-.001Z" fill="#F9F9FA"/><path fill-rule="evenodd" clip-rule="evenodd" d="M44.911 62.08c.023.012.04.025.051.038v.114a.563.563 0 0 0-.057-.035c-.076-.04-.127-.034-.156.02l-.001.512-.116-.062.002-.722.113.06.003.086c.038-.044.092-.049.161-.011Z" fill="#26272C"/><path fill-rule="evenodd" clip-rule="evenodd" d="M47.823 65.812v-.135l-.083-.045c-.055-.029-.1-.042-.128-.037-.028.006-.043.028-.043.066 0 .031.01.062.03.09.02.03.045.052.078.07.03.015.058.023.085.022.027-.002.047-.011.061-.03Zm.15.117c0 .065.009.122.027.17v.011l-.156-.083a.385.385 0 0 1-.018-.077c-.048.028-.108.024-.178-.014a.463.463 0 0 1-.167-.151.346.346 0 0 1-.064-.188c0-.078.027-.122.08-.134.055-.014.133.008.231.061l.095.05v-.047a.195.195 0 0 0-.03-.105.23.23 0 0 0-.09-.083c-.033-.018-.062-.024-.084-.017-.023.006-.034.023-.034.051l-.152-.08c0-.04.012-.071.037-.092a.144.144 0 0 1 .1-.028.532.532 0 0 1 .332.212.383.383 0 0 1 .072.22v.324Z" fill="#135687"/><path fill-rule="evenodd" clip-rule="evenodd" d="M47.618 65.595c.032-.005.082.009.145.04l.094.048v.145c-.016.021-.039.03-.07.033a.245.245 0 0 1-.185-.098.164.164 0 0 1-.032-.098c0-.04.016-.064.048-.07Zm2.498 1.335c.033-.004.081.008.146.04l.093.048v.145c-.015.022-.04.03-.068.034a.204.204 0 0 1-.097-.025.243.243 0 0 1-.09-.074.167.167 0 0 1-.032-.097c0-.04.016-.064.048-.07Z" fill="#F9F9FA"/><path fill-rule="evenodd" clip-rule="evenodd" d="M50.32 67.147v-.135l-.082-.044c-.057-.03-.099-.042-.127-.038-.029.006-.043.028-.043.066 0 .032.01.063.028.09a.217.217 0 0 0 .164.092c.026-.002.047-.01.06-.03Zm.152.118c0 .065.008.122.025.168v.012l-.156-.083a.304.304 0 0 1-.017-.076c-.05.027-.109.022-.178-.015a.451.451 0 0 1-.166-.15.338.338 0 0 1-.065-.188c0-.079.027-.123.081-.135.054-.013.13.008.23.062l.094.05v-.049a.195.195 0 0 0-.03-.104.226.226 0 0 0-.088-.082c-.036-.02-.064-.025-.087-.018-.021.007-.032.023-.032.052l-.153-.082c0-.039.013-.07.037-.091a.146.146 0 0 1 .102-.027.38.38 0 0 1 .141.047.53.53 0 0 1 .19.164c.047.07.071.141.072.22v.325Zm1.32.5v-.219c0-.09-.01-.164-.033-.218a.245.245 0 0 0-.111-.123c-.051-.027-.088-.027-.11.001-.025.026-.036.084-.038.168v.22c0 .092.01.165.034.222.024.058.06.1.112.127.05.027.086.025.109-.003.024-.03.037-.086.037-.175Zm.08-.469a.77.77 0 0 1 .073.346v.168c-.001.14-.025.232-.075.276-.05.045-.123.042-.225-.013a.519.519 0 0 1-.221-.222.747.747 0 0 1-.077-.348v-.169c0-.14.026-.231.076-.274.048-.045.123-.04.225.015a.524.524 0 0 1 .223.221Z" fill="#135687"/><path fill-rule="evenodd" clip-rule="evenodd" d="M51.648 67.206c.05.027.087.067.111.123a.584.584 0 0 1 .033.218v.219c0 .089-.013.145-.038.174-.022.029-.059.03-.108.004a.244.244 0 0 1-.112-.128.571.571 0 0 1-.035-.222l.001-.219c.002-.085.013-.142.037-.168.023-.029.06-.029.11-.001Zm.556.806.274-.263.014-.015-.002.406-.286-.128Z" fill="#F9F9FA"/><path fill-rule="evenodd" clip-rule="evenodd" d="m52.444 68.139.002-.406-.012.015-.23.263.24.128Zm.15.082.115.06v.13l-.115-.061v.216l-.152-.08v-.217l-.395-.211-.004-.1.396-.447.157.084-.001.626Z" fill="#135687"/><path fill-rule="evenodd" clip-rule="evenodd" d="M55.148 68.202a.337.337 0 0 1-.14-.147.465.465 0 0 1-.052-.22c0-.09.018-.152.053-.182.036-.029.082-.028.139.002a.34.34 0 0 1 .14.15c.036.068.053.14.053.22 0 .088-.018.148-.053.178-.034.031-.081.03-.14-.001Z" fill="#F9F9FA"/><path fill-rule="evenodd" clip-rule="evenodd" d="M55.288 68.202c.035-.029.052-.089.053-.177a.468.468 0 0 0-.052-.22.337.337 0 0 0-.141-.15c-.057-.03-.104-.031-.139-.002-.035.03-.053.09-.053.18 0 .08.017.154.052.221a.337.337 0 0 0 .14.147c.059.032.106.033.14.001Zm.085-.427c.056.1.084.205.084.318v.009a.315.315 0 0 1-.04.167.138.138 0 0 1-.107.074.276.276 0 0 1-.163-.04.552.552 0 0 1-.223-.222.61.61 0 0 1-.085-.315v-.01c0-.07.013-.127.04-.17a.14.14 0 0 1 .11-.072.28.28 0 0 1 .16.039.57.57 0 0 1 .224.222Z" fill="#26272C"/><path fill-rule="evenodd" clip-rule="evenodd" d="M59.858 71.477v.14l-.364-.194-.026.22a.257.257 0 0 1 .144.037.498.498 0 0 1 .202.197.55.55 0 0 1 .071.278c0 .097-.027.163-.08.193-.053.029-.127.02-.22-.03a.588.588 0 0 1-.208-.186.488.488 0 0 1-.09-.249l.149.08a.3.3 0 0 0 .046.133.29.29 0 0 0 .102.092c.046.025.083.026.11.005.026-.021.039-.064.039-.124a.325.325 0 0 0-.042-.164.296.296 0 0 0-.19-.14.11.11 0 0 0-.063.01l-.122-.096.051-.464.49.262Zm-.51-1.679c.08.043.146.101.196.17a.347.347 0 0 1 .074.205l-.153-.081a.173.173 0 0 0-.032-.094.231.231 0 0 0-.086-.078c-.034-.018-.06-.024-.082-.018-.021.005-.032.02-.033.048 0 .024.01.05.03.073.02.025.06.06.12.107a1 1 0 0 1 .14.124.496.496 0 0 1 .076.11.274.274 0 0 1 .025.113c0 .065-.026.103-.077.117-.051.013-.117-.003-.2-.046a.605.605 0 0 1-.25-.254.32.32 0 0 1-.035-.14l.148.079a.19.19 0 0 0 .04.11.284.284 0 0 0 .1.085c.04.022.07.029.091.024.022-.004.032-.021.032-.047a.126.126 0 0 0-.033-.083.72.72 0 0 0-.111-.1.991.991 0 0 1-.13-.114c-.076-.08-.114-.157-.114-.23 0-.063.026-.101.075-.117.05-.016.112-.004.189.037Z" fill="#135687"/><path fill-rule="evenodd" clip-rule="evenodd" d="M61.075 71.148c.032-.007.08.006.145.039l.094.047v.147c-.015.02-.04.03-.069.032a.185.185 0 0 1-.097-.023.23.23 0 0 1-.09-.076.162.162 0 0 1-.032-.095c0-.042.016-.065.049-.071Z" fill="#F9F9FA"/><path fill-rule="evenodd" clip-rule="evenodd" d="M45.089 61.946c-.013.006-.019.021-.02.04 0 .02.006.04.02.06.01.02.028.036.05.048.023.012.04.014.051.006.012-.007.017-.02.018-.04a.12.12 0 0 0-.017-.06.128.128 0 0 0-.051-.048c-.023-.012-.04-.014-.051-.006Zm11.183 6.827c-.01.008-.017.022-.017.043a.126.126 0 0 0 .07.11c.025.013.044.016.056.008.012-.007.019-.02.019-.041a.13.13 0 0 0-.073-.112c-.025-.013-.042-.016-.055-.008ZM34.046 56.157c.015-.01.023-.024.023-.048a.148.148 0 0 0-.022-.075.168.168 0 0 0-.065-.059c-.028-.014-.049-.018-.064-.01-.015.01-.022.027-.022.052 0 .024.007.047.021.071a.164.164 0 0 0 .064.058c.029.015.05.019.065.01Zm.87-1.814c-.015.008-.022.023-.023.05 0 .023.007.048.023.071a.16.16 0 0 0 .063.06c.027.014.05.017.064.008.016-.007.023-.024.023-.048a.161.161 0 0 0-.086-.133c-.028-.015-.05-.017-.064-.008Zm10.28 7.902-.117-.062-.002.722.116.062.003-.722Zm-10.14-7.578-.153-.082-.003.722.154.082.002-.722Zm-.999 1.623-.153-.082-.002.722.153.081.002-.721Zm.326.897.003-1.024-.153-.082-.003 1.024.153.082Zm.193-3.08-.003 1.025.153.081.003-1.025-.153-.081Zm14.262 10.086-.002.721.115.062.002-.511c.027-.055.078-.062.154-.022.021.012.04.023.057.035v-.114a.198.198 0 0 0-.05-.038c-.07-.036-.124-.032-.162.012l-.003-.086-.111-.06Zm-4.089-1.975c.029-.055.08-.062.156-.021a.49.49 0 0 1 .057.035v-.114a.191.191 0 0 0-.05-.038c-.07-.037-.124-.033-.162.011l-.003-.085-.113-.06-.002.72.116.063.002-.511Zm8.7 4.44-.001.722.117.063.002-.511c.026-.055.077-.063.154-.022a.49.49 0 0 1 .056.035v-.114a.199.199 0 0 0-.05-.038c-.07-.037-.123-.033-.162.011l-.002-.085-.113-.06ZM32.28 55.34l-.002.722.153.082.001-.493c.024-.045.071-.048.142-.01a.47.47 0 0 1 .062.039v-.152a.244.244 0 0 0-.053-.04c-.065-.034-.116-.03-.153.014l-.004-.084-.146-.078Zm17.595 10.132v-.1a.269.269 0 0 1-.055-.021.137.137 0 0 1-.058-.054.149.149 0 0 1-.016-.073l.001-.448.127.068v-.097l-.127-.068v-.174l-.115-.062v.174l-.123-.065v.096l.122.066-.001.446c0 .062.012.117.039.164a.28.28 0 0 0 .117.113c.03.015.06.027.09.035Zm1.37.008v.096l.123.066-.002.447a.33.33 0 0 0 .04.164.285.285 0 0 0 .117.112.483.483 0 0 0 .089.035v-.1a.282.282 0 0 1-.055-.02.137.137 0 0 1-.058-.054.149.149 0 0 1-.017-.074l.002-.448.127.068v-.096l-.127-.068v-.174l-.115-.062-.001.174-.123-.066Zm-5.578-2.258v-.1a.295.295 0 0 1-.054-.02.13.13 0 0 1-.075-.128l.001-.448.126.067v-.096l-.126-.067.001-.175-.116-.062v.175l-.125-.067v.097l.124.066-.001.446a.33.33 0 0 0 .04.165.28.28 0 0 0 .116.112.49.49 0 0 0 .09.035ZM60.781 71.3v-.124a.247.247 0 0 1-.052-.022.132.132 0 0 1-.055-.048.135.135 0 0 1-.016-.068l.002-.403.12.064v-.12l-.12-.065v-.174l-.152-.082v.175l-.112-.06v.12l.111.06-.001.409c0 .138.059.238.176.3a.41.41 0 0 0 .099.038Zm-3.762-.368v-.126a.246.246 0 0 1-.052-.02.13.13 0 0 1-.055-.048.144.144 0 0 1-.016-.069l.002-.403.12.064v-.12l-.12-.064v-.176l-.152-.081v.175l-.112-.06v.121l.111.06-.001.409a.32.32 0 0 0 .174.3.511.511 0 0 0 .1.038ZM35.43 59.39v-.126a.27.27 0 0 1-.053-.021.137.137 0 0 1-.055-.048.143.143 0 0 1-.015-.068l.001-.403.12.064v-.12l-.12-.064v-.177l-.15-.08v.176l-.113-.06v.12l.112.06-.002.409c0 .137.058.237.175.3a.47.47 0 0 0 .1.038Zm14.393 7.695v-.126a.285.285 0 0 1-.053-.021.134.134 0 0 1-.056-.048.146.146 0 0 1-.015-.068l.002-.403.12.064v-.12l-.12-.064v-.176l-.152-.082v.176l-.112-.06v.12l.11.06v.41a.316.316 0 0 0 .175.3.5.5 0 0 0 .1.038Zm-7.196-3.847v-.127a.271.271 0 0 1-.053-.02.134.134 0 0 1-.056-.048.148.148 0 0 1-.015-.069l.001-.403.12.065v-.12l-.12-.065.001-.176-.152-.081-.001.175-.112-.06v.121l.112.06-.002.409c0 .136.059.237.176.3a.507.507 0 0 0 .1.039Zm20.822 9.491.003-.974-.02-.01-.356-.051v.135l.223.038-.003.78.153.082Zm-15.323-8.916-.001.471c0 .087.019.164.056.229a.409.409 0 0 0 .165.154c.087.047.154.056.2.023l.002.072.11.059.002-.722-.116-.062-.001.526c-.03.053-.09.058-.177.011-.085-.045-.126-.123-.125-.232l.001-.466-.116-.063Zm-7.883-4.214-.001.47c0 .089.019.165.057.23a.414.414 0 0 0 .165.154c.088.047.154.056.2.023v.071l.111.06.002-.723-.116-.061-.001.526c-.029.054-.088.058-.177.01-.084-.044-.126-.122-.125-.232l.001-.466-.116-.062Zm2.4 1.283-.003.721.116.062.002-.514a.105.105 0 0 1 .066-.048.15.15 0 0 1 .1.02c.046.026.08.056.103.093.02.036.032.081.033.134l-.002.477.116.062.002-.477a.397.397 0 0 0-.217-.375c-.083-.044-.151-.046-.204-.003l-.002-.093-.11-.06Zm-7.255-3.67c.03-.043.076-.048.138-.014a.217.217 0 0 1 .09.08.218.218 0 0 1 .028.117v.467l.152.082.001-.477c-.002-.173-.074-.298-.215-.374-.082-.044-.147-.045-.198-.008l-.004-.087-.143-.076-.002.722.151.08.002-.512Zm6.92 3.616c.024.038.036.08.036.123v.055l-.114-.06c-.097-.052-.172-.071-.226-.058-.054.014-.08.056-.081.132 0 .061.02.124.063.187a.463.463 0 0 0 .165.148c.075.04.139.044.194.015a.35.35 0 0 0 .016.084l.121.065v-.01a.546.546 0 0 1-.024-.172l.001-.332a.378.378 0 0 0-.067-.207.5.5 0 0 0-.184-.162.333.333 0 0 0-.135-.042.135.135 0 0 0-.1.026.105.105 0 0 0-.035.085l.116.062c0-.031.014-.05.042-.057.029-.007.063 0 .105.023a.28.28 0 0 1 .107.095Zm-5.396-4.707a.133.133 0 0 1 .033.083c0 .028-.01.043-.032.048-.021.004-.05-.003-.092-.024a.288.288 0 0 1-.099-.085.194.194 0 0 1-.04-.11l-.148-.08c0 .044.012.091.036.142a.579.579 0 0 0 .25.254c.082.043.148.058.2.044.049-.012.074-.051.075-.118a.276.276 0 0 0-.024-.11.462.462 0 0 0-.076-.111 1.124 1.124 0 0 0-.142-.126.688.688 0 0 1-.118-.105.115.115 0 0 1-.03-.073c0-.029.012-.044.033-.049.021-.005.048 0 .082.018a.233.233 0 0 1 .086.078.172.172 0 0 1 .033.095l.152.082a.355.355 0 0 0-.074-.207.57.57 0 0 0-.196-.168c-.077-.04-.14-.054-.189-.039-.05.016-.075.055-.075.116 0 .076.038.152.114.232.035.036.077.074.13.114.05.038.089.072.111.099Zm18.87 14.105c.052-.013.076-.053.076-.117a.26.26 0 0 0-.023-.112.463.463 0 0 0-.076-.11 1.143 1.143 0 0 0-.14-.126.816.816 0 0 1-.12-.105.117.117 0 0 1-.03-.074c0-.028.012-.044.033-.05.021-.005.048.002.082.02a.243.243 0 0 1 .086.076.173.173 0 0 1 .032.096l.153.082a.35.35 0 0 0-.075-.206.551.551 0 0 0-.196-.17c-.076-.04-.14-.053-.188-.037-.05.016-.075.053-.075.117 0 .073.038.15.114.23a.96.96 0 0 0 .13.114c.052.04.089.073.111.1a.125.125 0 0 1 .032.084c0 .025-.01.041-.03.046-.022.005-.052-.003-.093-.025a.307.307 0 0 1-.099-.083.2.2 0 0 1-.04-.11l-.148-.08c0 .042.012.09.036.14a.55.55 0 0 0 .101.143.612.612 0 0 0 .148.111c.083.044.149.058.2.046Zm-14.39-7.696c.051-.013.077-.052.077-.117a.263.263 0 0 0-.025-.112.437.437 0 0 0-.076-.11 1.185 1.185 0 0 0-.14-.126.776.776 0 0 1-.12-.105.119.119 0 0 1-.028-.074c0-.027.01-.044.032-.05.02-.005.047.002.082.02a.244.244 0 0 1 .086.077.166.166 0 0 1 .032.095l.152.082a.35.35 0 0 0-.074-.206.552.552 0 0 0-.196-.17c-.076-.04-.139-.052-.188-.037-.05.016-.075.053-.076.117 0 .073.038.151.114.23a1.1 1.1 0 0 0 .13.114c.052.04.09.073.112.1a.13.13 0 0 1 .034.084c0 .026-.012.041-.033.046-.02.006-.051-.003-.09-.024a.3.3 0 0 1-.101-.084.208.208 0 0 1-.04-.11l-.148-.079a.32.32 0 0 0 .036.14c.023.05.057.096.1.142a.608.608 0 0 0 .15.111c.081.044.147.058.199.046Zm-7.196-3.847c.051-.013.077-.052.077-.117a.264.264 0 0 0-.025-.113.423.423 0 0 0-.075-.11 1.192 1.192 0 0 0-.141-.126.792.792 0 0 1-.119-.104.114.114 0 0 1-.029-.074c0-.027.01-.044.031-.05.021-.005.048.002.082.02.037.02.065.045.087.076a.167.167 0 0 1 .032.096l.152.081a.346.346 0 0 0-.074-.205.558.558 0 0 0-.196-.17c-.077-.04-.139-.053-.189-.037-.049.015-.073.054-.074.117 0 .073.038.151.113.23.035.037.08.074.13.113.052.04.089.073.112.1a.13.13 0 0 1 .033.085c0 .025-.011.04-.031.047-.021.005-.053-.004-.092-.026a.305.305 0 0 1-.1-.083.207.207 0 0 1-.04-.111l-.148-.079c0 .043.011.09.035.14a.571.571 0 0 0 .25.254c.082.043.148.058.2.046Zm14.393 7.695c.05-.013.076-.052.076-.117a.261.261 0 0 0-.025-.113.454.454 0 0 0-.076-.11 1.129 1.129 0 0 0-.14-.126.773.773 0 0 1-.12-.105.113.113 0 0 1-.028-.073c0-.027.01-.045.032-.05.021-.005.048.002.082.02.035.02.065.045.086.076a.173.173 0 0 1 .032.096l.153.081a.354.354 0 0 0-.075-.205.557.557 0 0 0-.196-.17c-.076-.04-.139-.053-.188-.037-.05.016-.075.053-.075.116 0 .074.038.151.114.231a.958.958 0 0 0 .13.113.7.7 0 0 1 .11.1.125.125 0 0 1 .033.084c0 .026-.01.042-.031.047-.02.006-.05-.003-.09-.025a.303.303 0 0 1-.1-.083.207.207 0 0 1-.041-.11l-.149-.08c0 .042.013.09.037.14.023.05.057.097.1.143a.607.607 0 0 0 .15.11c.081.045.148.06.199.047Zm10.509 3.916c.024.05.058.098.101.143a.613.613 0 0 0 .149.11c.082.044.148.06.199.047.051-.013.077-.052.077-.117a.275.275 0 0 0-.025-.113.463.463 0 0 0-.076-.11 1.006 1.006 0 0 0-.14-.124.774.774 0 0 1-.12-.106.115.115 0 0 1-.03-.073c0-.03.012-.044.033-.05.021-.005.048 0 .082.019a.23.23 0 0 1 .086.078.172.172 0 0 1 .033.093l.152.082a.35.35 0 0 0-.075-.205.573.573 0 0 0-.195-.17c-.077-.04-.139-.053-.189-.037-.05.016-.075.055-.075.116 0 .074.038.151.114.231a.997.997 0 0 0 .13.114.69.69 0 0 1 .111.1.127.127 0 0 1 .032.083c0 .026-.01.043-.03.047-.022.005-.052-.002-.093-.024a.29.29 0 0 1-.098-.084.193.193 0 0 1-.041-.111l-.148-.08c0 .044.012.092.036.14Zm-8.023-4.183.134.072-.228-.486.223-.24-.135-.072-.152.183-.148-.343-.134-.072.22.476-.23.242.136.072.158-.185.156.353Zm-9.751-5.298a.55.55 0 0 0 .22.216.27.27 0 0 0 .13.036c.041 0 .075-.01.1-.035a.143.143 0 0 0 .04-.098l-.11-.058c-.004.038-.02.062-.052.072-.031.01-.066.004-.108-.018a.324.324 0 0 1-.138-.142.455.455 0 0 1-.047-.216v-.024c0-.086.016-.142.048-.17.033-.028.078-.026.138.006.044.023.08.058.11.104a.295.295 0 0 1 .05.141l.11.058a.52.52 0 0 0-.27-.406.275.275 0 0 0-.161-.04.141.141 0 0 0-.105.071.345.345 0 0 0-.036.17v.02a.61.61 0 0 0 .081.313Zm12.52 6.415v.023a.57.57 0 0 0 .085.303.581.581 0 0 0 .225.217c.113.06.199.06.256-.002l-.07-.098a.133.133 0 0 1-.076.032.209.209 0 0 1-.105-.03.364.364 0 0 1-.142-.141.425.425 0 0 1-.057-.204l.459.246v-.052a.61.61 0 0 0-.073-.305.502.502 0 0 0-.204-.203.244.244 0 0 0-.152-.032.153.153 0 0 0-.107.074.334.334 0 0 0-.039.172Zm-3.29-1.72v-.052a.61.61 0 0 0-.072-.305.498.498 0 0 0-.205-.203.24.24 0 0 0-.15-.032.149.149 0 0 0-.109.074.33.33 0 0 0-.038.172v.023a.58.58 0 0 0 .084.303.578.578 0 0 0 .225.216c.113.06.2.06.256-.001l-.07-.098a.134.134 0 0 1-.075.032.209.209 0 0 1-.105-.03.369.369 0 0 1-.142-.141.424.424 0 0 1-.058-.204l.46.245Zm-4.784-2.574c0 .107.03.209.087.305a.578.578 0 0 0 .224.216c.113.06.198.059.257-.002l-.073-.099a.129.129 0 0 1-.073.033.212.212 0 0 1-.105-.03.366.366 0 0 1-.142-.141.425.425 0 0 1-.058-.204l.46.246v-.052a.611.611 0 0 0-.073-.305.505.505 0 0 0-.206-.203.24.24 0 0 0-.15-.032.147.147 0 0 0-.108.075.331.331 0 0 0-.04.17v.023Zm7.056 4.03a.58.58 0 0 0 .224.217c.114.06.2.06.256-.002l-.07-.098a.134.134 0 0 1-.075.032.202.202 0 0 1-.103-.03.36.36 0 0 1-.143-.14.42.42 0 0 1-.059-.205l.46.246v-.05a.624.624 0 0 0-.072-.306.506.506 0 0 0-.206-.204.239.239 0 0 0-.15-.032.153.153 0 0 0-.109.075.332.332 0 0 0-.039.171v.023a.57.57 0 0 0 .086.303Zm8.63 4.697v-.01a.504.504 0 0 1-.025-.169v-.326a.38.38 0 0 0-.072-.218.532.532 0 0 0-.19-.166.36.36 0 0 0-.142-.046.135.135 0 0 0-.1.027.116.116 0 0 0-.038.092l.153.081c0-.028.011-.046.033-.053.022-.006.05-.001.086.017.04.022.07.05.089.083a.2.2 0 0 1 .03.106v.047l-.094-.05c-.1-.054-.177-.074-.23-.062-.054.013-.081.058-.082.135 0 .061.021.124.063.187a.457.457 0 0 0 .168.151c.07.037.129.042.179.016.004.032.01.058.016.075l.156.083ZM43.3 63.598v-.012a.499.499 0 0 1-.025-.169l.001-.325a.392.392 0 0 0-.071-.218.54.54 0 0 0-.19-.166.387.387 0 0 0-.142-.047.154.154 0 0 0-.102.027.119.119 0 0 0-.037.092l.152.082c0-.03.012-.046.035-.051.02-.009.05-.003.084.016.04.021.07.05.09.082a.202.202 0 0 1 .029.105v.048l-.094-.05c-.1-.053-.177-.075-.23-.061-.054.012-.081.056-.081.134 0 .06.02.123.064.188a.457.457 0 0 0 .167.15c.069.038.128.043.178.015.004.034.01.06.017.077l.155.083ZM35.995 58a.447.447 0 0 0 .166.15c.07.038.13.043.178.016a.538.538 0 0 0 .017.075l.156.083v-.01a.505.505 0 0 1-.025-.169v-.326a.385.385 0 0 0-.07-.218.54.54 0 0 0-.191-.166.357.357 0 0 0-.142-.046c-.042-.003-.076.006-.1.028-.026.021-.039.05-.039.09l.153.082c0-.028.011-.046.034-.052.021-.007.051-.002.085.017.04.022.07.05.09.083a.2.2 0 0 1 .028.105v.047l-.093-.05c-.1-.053-.177-.074-.23-.062-.055.013-.082.058-.082.135a.33.33 0 0 0 .065.188Zm.11 1.75v-.013a.498.498 0 0 1-.026-.168l.001-.325a.39.39 0 0 0-.071-.219.54.54 0 0 0-.191-.165.388.388 0 0 0-.141-.047.152.152 0 0 0-.102.027.117.117 0 0 0-.037.091l.152.082c0-.028.012-.045.034-.051.022-.008.05-.002.085.017.04.02.07.05.09.083a.201.201 0 0 1 .029.103v.049l-.094-.05c-.099-.053-.177-.075-.23-.062-.054.012-.081.056-.081.135 0 .06.02.122.064.188a.46.46 0 0 0 .166.15c.071.038.13.043.179.014.004.034.011.06.017.077l.155.083Zm21.588 11.542v-.012a.494.494 0 0 1-.025-.169v-.325a.388.388 0 0 0-.072-.22.529.529 0 0 0-.332-.211.15.15 0 0 0-.1.027.118.118 0 0 0-.038.092l.153.082c0-.029.011-.046.032-.052.023-.008.051-.001.087.017a.22.22 0 0 1 .089.082c.02.032.03.068.029.105v.048l-.093-.05c-.1-.053-.177-.075-.231-.061-.054.012-.08.056-.081.134 0 .06.021.123.063.188a.466.466 0 0 0 .167.15c.07.038.13.043.18.015a.32.32 0 0 0 .016.077l.156.083Zm-16.89-9.03v-.012a.498.498 0 0 1-.024-.168v-.325a.395.395 0 0 0-.072-.22.529.529 0 0 0-.332-.212.144.144 0 0 0-.1.027.119.119 0 0 0-.038.092l.153.081c0-.028.01-.045.032-.051.023-.008.051-.002.085.016.041.023.07.05.09.083.02.032.03.068.03.105v.048l-.094-.05c-.1-.053-.176-.075-.23-.061-.054.012-.08.056-.08.134-.001.06.02.123.062.188a.461.461 0 0 0 .167.15c.07.038.13.043.178.014.006.035.011.06.018.078l.155.083Zm14.392 7.694v-.012a.496.496 0 0 1-.025-.168v-.325a.388.388 0 0 0-.071-.219.534.534 0 0 0-.332-.212.146.146 0 0 0-.1.028.113.113 0 0 0-.039.09l.153.082c0-.029.011-.045.034-.051.023-.008.05-.001.085.017.04.022.07.05.09.083.02.031.03.066.03.104v.048l-.096-.05c-.098-.053-.176-.075-.23-.062-.054.012-.08.056-.081.135 0 .06.021.122.065.188a.462.462 0 0 0 .166.15c.07.038.13.043.178.014.006.035.012.06.017.077l.155.083ZM33.606 58.415v-.012a.5.5 0 0 1-.025-.168l.001-.325a.386.386 0 0 0-.072-.22.53.53 0 0 0-.333-.212.145.145 0 0 0-.1.028.118.118 0 0 0-.037.092l.152.081c0-.029.01-.046.033-.052.023-.007.051-.001.086.018a.22.22 0 0 1 .09.082.2.2 0 0 1 .029.105v.048l-.094-.05c-.1-.054-.176-.075-.23-.062-.054.012-.081.057-.081.135 0 .06.02.122.063.187a.469.469 0 0 0 .166.15c.071.039.13.043.179.015.005.034.011.06.018.077l.155.083Zm16.89 9.03v-.012a.492.492 0 0 1-.025-.168v-.325a.385.385 0 0 0-.072-.22.53.53 0 0 0-.19-.164.38.38 0 0 0-.14-.047.147.147 0 0 0-.103.027.118.118 0 0 0-.037.091l.153.082c0-.029.011-.045.032-.052.023-.007.051-.001.087.018.04.021.069.049.089.082a.19.19 0 0 1 .029.104v.049l-.093-.05c-.1-.054-.177-.075-.231-.062-.054.012-.08.056-.081.135 0 .06.02.122.065.188a.45.45 0 0 0 .166.15c.07.038.129.042.178.015.004.034.01.06.017.076l.156.083ZM48 66.11v-.01a.466.466 0 0 1-.026-.17v-.324a.38.38 0 0 0-.071-.22.53.53 0 0 0-.332-.212c-.043-.001-.076.008-.1.028-.026.02-.037.053-.037.092l.15.08c0-.028.012-.045.035-.05.022-.008.05-.002.084.016a.23.23 0 0 1 .091.083c.02.032.03.067.03.105l-.001.048-.095-.05c-.099-.054-.176-.076-.23-.062-.054.012-.081.056-.081.134 0 .06.022.123.064.188a.465.465 0 0 0 .167.151c.07.038.13.042.178.014.006.034.011.06.018.077l.156.083Zm10.375 3.703c0 .061.023.125.065.188a.451.451 0 0 0 .166.15c.07.039.13.043.179.016a.369.369 0 0 0 .018.076l.155.083v-.01a.481.481 0 0 1-.026-.17v-.326a.388.388 0 0 0-.07-.217.54.54 0 0 0-.191-.167.36.36 0 0 0-.142-.045c-.042-.003-.076.006-.1.027-.026.021-.037.051-.037.092l.15.08c0-.028.012-.046.035-.052.023-.006.05-.001.085.017.041.022.07.05.09.083a.2.2 0 0 1 .03.106v.047l-.095-.051c-.1-.053-.177-.073-.23-.062-.055.014-.082.058-.082.135ZM33.643 56.792l.002-.602.139.074v-.12l-.139-.074v-.063c0-.08.038-.101.11-.062a.35.35 0 0 1 .058.037l.004-.126a.562.562 0 0 0-.084-.056c-.077-.04-.135-.05-.176-.029-.042.021-.064.072-.064.151v.066l-.103-.055v.12l.103.056-.002.601.152.082Zm4.692 2.2v-.066a.62.62 0 0 0-.074-.307.522.522 0 0 0-.214-.21.268.268 0 0 0-.158-.036.152.152 0 0 0-.111.074.344.344 0 0 0-.039.173v.02a.61.61 0 0 0 .323.528.36.36 0 0 0 .154.047c.045 0 .08-.015.108-.043l-.082-.128c-.044.037-.1.037-.17 0a.326.326 0 0 1-.124-.118.389.389 0 0 1-.056-.172l.443.238Zm-3.488-1.543c.057.03.108.045.153.047a.147.147 0 0 0 .109-.043l-.082-.128c-.044.037-.1.037-.171-.001a.33.33 0 0 1-.124-.117.367.367 0 0 1-.055-.171l.444.237v-.066a.61.61 0 0 0-.076-.307.52.52 0 0 0-.213-.21.261.261 0 0 0-.158-.036.144.144 0 0 0-.11.074.326.326 0 0 0-.04.173v.02a.615.615 0 0 0 .323.528Zm1.004-1.997v.02c0 .108.03.21.09.307a.61.61 0 0 0 .234.223c.056.03.107.045.153.046a.141.141 0 0 0 .109-.043l-.082-.126c-.044.036-.1.036-.171-.002a.336.336 0 0 1-.124-.119.37.37 0 0 1-.055-.17l.444.237v-.066a.612.612 0 0 0-.076-.307.525.525 0 0 0-.213-.208.26.26 0 0 0-.158-.038.146.146 0 0 0-.11.074.323.323 0 0 0-.04.172Zm4.25 4.44v-.01a.629.629 0 0 0-.085-.317.572.572 0 0 0-.224-.222.278.278 0 0 0-.16-.04.14.14 0 0 0-.109.074.314.314 0 0 0-.04.17v.008a.61.61 0 0 0 .086.316c.056.099.13.172.222.221a.271.271 0 0 0 .161.04.134.134 0 0 0 .11-.073.321.321 0 0 0 .038-.167Zm7.264 3.868v.01a.623.623 0 0 0 .308.536c.06.032.115.047.162.04a.139.139 0 0 0 .11-.073.324.324 0 0 0 .037-.168v-.009a.63.63 0 0 0-.084-.317.564.564 0 0 0-.224-.223.278.278 0 0 0-.16-.038.143.143 0 0 0-.11.072.334.334 0 0 0-.04.17Zm7.474 3.997v.008a.61.61 0 0 0 .085.316.55.55 0 0 0 .223.221.274.274 0 0 0 .163.04.138.138 0 0 0 .108-.073.321.321 0 0 0 .039-.167v-.01a.628.628 0 0 0-.084-.317.574.574 0 0 0-.225-.222.277.277 0 0 0-.16-.039.14.14 0 0 0-.109.073.315.315 0 0 0-.04.17ZM32.765 56.235a.573.573 0 0 0 .228.223.302.302 0 0 0 .167.044.15.15 0 0 0 .11-.072.328.328 0 0 0 .04-.17v-.038a.619.619 0 0 0-.316-.514.298.298 0 0 0-.164-.04.137.137 0 0 0-.11.071.315.315 0 0 0-.04.17v.007c0 .113.027.22.085.319Zm19.298 9.38-.003 1.023.117.063.002-.514a.098.098 0 0 1 .067-.049c.028-.006.06.001.099.021.045.024.08.055.101.092a.247.247 0 0 1 .034.134l-.002.477.116.062.002-.477a.396.396 0 0 0-.216-.374c-.083-.045-.15-.045-.2-.007v-.39l-.117-.062Zm5.622 3.005-.003 1.024.151.081.002-.516c.031-.04.076-.045.137-.012.04.02.07.047.09.078a.218.218 0 0 1 .03.123l-.001.465.152.081.002-.47c-.002-.178-.076-.306-.22-.383-.076-.04-.139-.042-.19-.008l.002-.382-.152-.08Zm-2.08-1.112-.003 1.024.116.062v-.253l.073-.042.235.46.137.073-.294-.577.265-.161-.141-.076-.211.125-.063.047.002-.62-.116-.062Zm4.708 3.543.002-.47c-.003-.178-.074-.305-.22-.383-.076-.041-.139-.042-.188-.007l.001-.382-.153-.082-.003 1.024.153.082.001-.516c.03-.042.075-.046.136-.013.04.02.07.047.09.078.02.032.03.073.03.123l-.002.464.153.082Zm-3.762-.368.002-.473c-.003-.177-.075-.303-.22-.38-.076-.041-.138-.045-.188-.01v-.381l-.152-.082-.003 1.026.153.081.001-.516c.03-.04.076-.047.136-.014.04.02.07.047.09.08.02.031.03.071.03.12l-.002.467.153.082Zm-9.266-4.955.001-.472c-.002-.178-.075-.304-.22-.381-.076-.04-.138-.044-.189-.01l.001-.381-.151-.081-.003 1.025.151.081.002-.516c.03-.04.076-.046.137-.013a.23.23 0 0 1 .09.078.23.23 0 0 1 .03.122l-.002.466.153.082Zm-5.126-2.74.001-.473a.401.401 0 0 0-.22-.38c-.074-.04-.138-.045-.188-.01l.001-.381-.152-.082-.003 1.025.152.082.002-.516c.03-.04.075-.047.137-.014a.23.23 0 0 1 .089.08c.02.031.03.071.03.12l-.002.467.153.081Zm-7.197-3.848.002-.472c-.001-.177-.074-.303-.218-.38-.077-.041-.14-.045-.19-.01l.001-.382-.152-.081-.004 1.025.153.081.002-.515c.03-.042.075-.047.137-.014a.23.23 0 0 1 .089.079c.02.032.03.072.03.121l-.002.466.152.082Zm-2.07-1.107.002-.472c-.002-.177-.074-.303-.22-.38-.076-.042-.139-.045-.188-.01l.001-.382-.153-.081-.003 1.025.153.082.002-.516c.03-.041.075-.047.136-.015.04.022.069.048.09.08.02.032.03.072.029.122l-.001.466.152.081Zm16.463 8.802.001-.472a.4.4 0 0 0-.22-.381c-.076-.041-.138-.044-.188-.009l.001-.382-.152-.081-.003 1.025.153.082V66.1c.03-.041.076-.047.137-.015.04.021.07.048.09.08.02.032.03.072.03.121l-.002.466.153.082Zm-9.266-4.954.001-.472c-.002-.178-.076-.304-.22-.381-.076-.041-.138-.044-.188-.01l.001-.381-.152-.082-.003 1.026.152.081.002-.515c.03-.042.075-.048.136-.015.04.021.069.048.09.08a.22.22 0 0 1 .03.121l-.002.466.153.082Zm14.392 7.695.001-.472c-.002-.178-.075-.304-.22-.381-.075-.041-.138-.044-.189-.01l.002-.382-.153-.081-.003 1.025.152.082.002-.516c.031-.04.076-.046.137-.014.04.021.07.048.09.08a.215.215 0 0 1 .03.121l-.002.466.153.082Zm-7.453-5.515.275-.689-.124-.066-.16.456-.168-.632-.127-.068.241.845-.027.059c-.014.037-.031.059-.054.064-.021.005-.052-.004-.092-.025l-.031-.018v.1l.043.032.022.013c.091.049.16.025.202-.071Zm12.776 8.287c.054-.03.08-.096.081-.193a.55.55 0 0 0-.071-.278.49.49 0 0 0-.202-.196.257.257 0 0 0-.144-.039l.026-.219.363.194v-.14l-.49-.262-.05.464.12.097a.11.11 0 0 1 .065-.012.295.295 0 0 1 .189.14c.028.05.042.105.042.165 0 .06-.014.103-.039.124-.027.021-.064.02-.11-.005a.293.293 0 0 1-.102-.092.303.303 0 0 1-.046-.133l-.149-.08a.49.49 0 0 0 .09.249.59.59 0 0 0 .208.186c.093.05.166.059.219.03Zm-7.86-4.538.001-.168a.751.751 0 0 0-.074-.346.524.524 0 0 0-.223-.221c-.102-.055-.177-.06-.225-.015-.05.043-.075.134-.076.274v.168c0 .137.026.252.077.349.05.095.124.17.221.222.102.055.175.058.225.014.05-.045.074-.137.075-.277Zm10.959 4.216v-.167a.771.771 0 0 0-.073-.347.523.523 0 0 0-.224-.221c-.101-.055-.176-.059-.226-.016-.048.045-.074.135-.074.275v.168a.753.753 0 0 0 .076.349c.05.095.124.17.222.222.1.053.175.06.224.015.05-.046.075-.138.075-.278Zm-18.155-8.064.001-.168a.736.736 0 0 0-.074-.345.526.526 0 0 0-.223-.222c-.102-.054-.177-.06-.225-.015-.05.043-.075.135-.076.275v.168c0 .136.027.252.076.348a.52.52 0 0 0 .223.223c.1.054.174.057.224.013.05-.044.074-.137.074-.277Zm14.393 7.696v-.169a.768.768 0 0 0-.074-.345.527.527 0 0 0-.224-.223c-.1-.053-.176-.059-.225-.014-.048.043-.074.135-.074.275v.168c0 .136.025.252.076.348.05.096.124.17.222.223.1.053.175.057.224.013.05-.044.075-.137.075-.276ZM37.554 60.116v-.169a.753.753 0 0 0-.075-.346.52.52 0 0 0-.223-.221c-.1-.054-.177-.06-.225-.015-.05.043-.074.135-.075.275v.168a.766.766 0 0 0 .075.348c.05.095.124.17.223.223.1.053.175.058.224.012.05-.044.075-.135.076-.275Zm-5.998-5.163-.003 1 .152.081.002-.343a.45.45 0 0 0 .179.174c.08.043.144.044.192.004.047-.041.071-.119.072-.23v-.009a.653.653 0 0 0-.07-.311.46.46 0 0 0-.195-.204c-.076-.04-.137-.043-.182-.01l-.006-.077-.141-.075Zm13.829 9.694c.056-.02.085-.075.085-.162a.352.352 0 0 0-.04-.16.47.47 0 0 0-.113-.148.135.135 0 0 0 .102-.033.137.137 0 0 0 .04-.102.428.428 0 0 0-.078-.244.583.583 0 0 0-.214-.189.336.336 0 0 0-.15-.045.127.127 0 0 0-.105.04c-.025.027-.037.066-.037.116l.151.08c0-.04.014-.065.04-.076.027-.011.061-.005.102.017a.261.261 0 0 1 .104.094c.023.037.034.08.034.126 0 .048-.014.076-.041.088-.029.01-.065.002-.112-.021l-.093-.05v.128l.09.048c.056.03.097.066.127.11.028.043.042.09.042.14 0 .052-.015.082-.041.094-.027.013-.066.006-.112-.019a.294.294 0 0 1-.11-.099.233.233 0 0 1-.04-.125l-.152-.082a.42.42 0 0 0 .084.244c.055.08.127.143.216.19.09.05.165.064.22.04Zm-1.38-.695.002-.699-.137-.073-.007.068a.437.437 0 0 0-.182-.183c-.082-.044-.147-.046-.197-.004-.05.04-.075.116-.075.227a.66.66 0 0 0 .075.32.47.47 0 0 0 .194.205c.073.04.133.046.176.016v.048c0 .057-.016.091-.044.106-.03.013-.07.007-.12-.02a.44.44 0 0 1-.174-.182l-.072.06c.025.047.06.095.108.143a.596.596 0 0 0 .146.11c.094.052.168.064.225.038.055-.024.082-.085.082-.18Zm7.197 3.848.002-.7-.137-.073-.008.069a.439.439 0 0 0-.182-.184c-.082-.043-.147-.045-.196-.004-.05.04-.076.117-.076.228 0 .119.025.226.074.32a.48.48 0 0 0 .195.205c.073.039.131.044.175.015v.048c0 .057-.014.092-.044.106-.029.014-.07.007-.12-.02a.44.44 0 0 1-.173-.181l-.072.059c.026.048.06.095.109.144a.614.614 0 0 0 .145.11c.093.05.168.063.225.038.055-.025.082-.086.083-.18Zm7.196 3.847.002-.699-.137-.073-.007.068a.44.44 0 0 0-.182-.183c-.082-.044-.149-.046-.198-.005-.05.04-.074.117-.075.229 0 .118.025.225.074.32a.482.482 0 0 0 .195.204c.073.04.132.045.175.016v.048c0 .057-.014.091-.044.105-.028.014-.07.007-.119-.02a.44.44 0 0 1-.173-.18l-.072.058c.023.048.06.096.108.144a.593.593 0 0 0 .145.111c.094.05.169.063.224.037.057-.024.084-.085.084-.18Zm3.762.37.002-.7-.137-.074-.007.07a.437.437 0 0 0-.182-.184c-.082-.044-.147-.044-.197-.005-.051.04-.075.116-.076.23 0 .118.025.225.074.317a.48.48 0 0 0 .195.205c.074.04.132.045.175.016v.05c0 .055-.014.091-.044.104-.028.015-.07.006-.119-.02a.43.43 0 0 1-.173-.181l-.072.059c.025.05.06.097.108.144a.608.608 0 0 0 .145.11c.094.05.169.063.224.039.057-.026.084-.085.084-.18ZM36.81 60.106l.003-.7-.139-.074-.007.069a.44.44 0 0 0-.182-.184c-.082-.043-.147-.045-.197-.004-.05.04-.075.116-.075.228 0 .119.024.225.075.32a.47.47 0 0 0 .193.204c.074.04.133.046.177.017v.048c0 .057-.016.09-.044.106-.03.012-.07.006-.12-.02a.443.443 0 0 1-.174-.182l-.072.059a.6.6 0 0 0 .108.144.612.612 0 0 0 .145.11c.095.051.17.064.226.038.055-.025.083-.085.084-.18Zm-1.589-5.654-.003 1.025.153.082v-.236l.069-.038.2.417.176.095-.277-.57.252-.166-.182-.098-.189.124-.048.037.002-.59-.153-.082Zm3.079 6.472v-.129l-.424-.227.224-.134c.06-.036.1-.075.128-.115a.236.236 0 0 0 .039-.13.414.414 0 0 0-.076-.239.592.592 0 0 0-.21-.183.349.349 0 0 0-.163-.048.136.136 0 0 0-.11.053.227.227 0 0 0-.038.14l.153.081c0-.056.014-.092.041-.11.027-.018.065-.012.115.014a.243.243 0 0 1 .099.095.25.25 0 0 1 .036.133.136.136 0 0 1-.029.088.323.323 0 0 1-.093.081l-.305.191v.111l.613.328Zm14.409 7.487v-.13l-.115-.06.002-.626-.156-.084-.397.447.004.1.396.21v.218l.15.08.001-.216.115.061Zm-8.812-6.137.163-.46.164.634.093.05.2-.616-.116-.061-.132.482-.16-.639-.094-.05-.158.458-.133-.613-.116-.063.196.828.093.05Zm-11.664-5.182v-.105l-.13-.07.05-.252-.105-.056-.05.252-.14-.076.05-.251-.105-.056-.05.252-.171-.092v.105l.152.082-.037.19-.164-.088v.105l.145.078-.049.248.105.056.049-.248.14.075-.048.248.105.056.048-.248.157.084v-.105l-.138-.074.037-.19.149.08Zm24.746 12.176.106.057.048-.247.14.075-.047.247.104.056.048-.247.158.084v-.106l-.138-.074.036-.19.15.08v-.106l-.13-.07.05-.252-.106-.056-.049.253-.14-.076.048-.252-.104-.056-.05.253-.172-.093v.105l.153.082-.036.19-.164-.087v.106l.144.077-.05.247Zm-17.55-8.329v-.105l-.13-.07.05-.252-.105-.056-.05.253-.14-.076.05-.252-.106-.056-.05.252-.17-.091v.105l.15.08-.035.19-.164-.087v.105l.144.078-.048.248.105.056.049-.248.14.075-.048.249.105.056.047-.25.159.085v-.105l-.139-.074.038-.19.148.08Zm14.393 7.695v-.105l-.13-.07.049-.252-.105-.056-.049.253-.14-.076.048-.252-.104-.056-.05.252-.172-.092v.105l.152.082-.036.19-.163-.088v.106l.143.077-.048.248.105.056.05-.248.14.075-.05.248.106.057.048-.249.158.085v-.106l-.138-.074.036-.19.15.08Zm-7.197-3.847v-.105l-.13-.07.05-.252-.105-.056-.049.252-.141-.075.049-.253-.105-.056-.049.253-.172-.093v.106l.152.081-.036.19-.164-.087v.105l.144.077-.047.249.104.056.049-.248.14.075-.047.248.104.056.048-.248.158.084v-.105l-.138-.074.036-.19.15.08Zm-9.018-5.876.001-.474a.45.45 0 0 0-.056-.226.405.405 0 0 0-.166-.155c-.09-.047-.159-.047-.208 0a.382.382 0 0 0-.186-.21c-.082-.044-.149-.05-.196-.016l-.004-.078-.144-.077-.002.722.152.082.002-.522c.026-.04.068-.044.13-.01a.21.21 0 0 1 .121.191v.475l.152.082.001-.495a.083.083 0 0 1 .046-.054c.022-.007.05-.002.085.017a.24.24 0 0 1 .094.082c.018.03.027.07.027.115l-.002.47.153.08Zm1.532.458.317-.442-.137-.073-.238.361-.236-.615-.139-.074.313.778v.361l.12.065v-.361Zm-7.377-6.712.274.628-.284.339.185.099.198-.251.195.461.185.099-.28-.641.276-.334-.182-.098-.193.248-.192-.453-.182-.097Zm.813.434.274.628-.284.34.185.098.197-.25.195.46.186.1-.281-.642.277-.334-.182-.097-.194.247-.191-.453-.182-.097Zm.812.434.274.629-.284.339.185.099.198-.252.195.462.185.099-.28-.642.278-.333-.184-.098-.193.248-.192-.453-.182-.098Zm-3.503-3.057 38.523 20.597-.025 8.17L29.86 58.64l.025-8.17Z" fill="#F9F9FA"/><path fill-rule="evenodd" clip-rule="evenodd" d="M50.916 67.066a.292.292 0 0 1 .134.154v.318c-.03.04-.076.044-.136.011a.276.276 0 0 1-.116-.123.432.432 0 0 1-.042-.194c0-.083.015-.137.043-.166.028-.027.067-.027.117 0Zm-.64-2.016a.28.28 0 0 1 .114.113c.03.05.045.106.048.171v.01l-.34-.182c.008-.061.028-.101.06-.12.032-.02.071-.016.118.008Zm-4.082-.283.048-.191.182.075-.047.192-.183-.076Z" fill="#F9F9FA"/><path fill-rule="evenodd" clip-rule="evenodd" d="m46.377 64.843-.183-.076.048-.191.182.075-.047.192Z" fill="#135687"/><path fill-rule="evenodd" clip-rule="evenodd" d="M42.92 63.083c.032-.005.08.008.145.04l.094.047v.145c-.015.022-.038.031-.069.034a.247.247 0 0 1-.187-.099.17.17 0 0 1-.032-.097c0-.04.017-.064.05-.07Z" fill="#F9F9FA"/><path fill-rule="evenodd" clip-rule="evenodd" d="m32.511 53.057-.277.334.282.64-.186-.098-.195-.461-.198.25-.185-.098.284-.339-.274-.629.183.098.19.453.194-.248.182.098Zm1.222 2.743a.586.586 0 0 1 .085.056l-.005.126a.356.356 0 0 0-.058-.037c-.072-.039-.11-.018-.11.062v.063l.139.074v.12l-.139-.074-.002.602-.152-.082.002-.601-.104-.055v-.12l.104.054v-.066c0-.08.022-.13.064-.15.041-.022.1-.012.176.028Z" fill="#135687"/><path fill-rule="evenodd" clip-rule="evenodd" d="M53.199 66.82v-.01a.37.37 0 0 0-.046-.17.291.291 0 0 0-.116-.114c-.047-.025-.086-.028-.118-.008-.032.018-.052.059-.06.12l.34.181Zm.117.113v.051l-.461-.246c.001.072.02.14.059.205.036.063.085.11.142.14a.19.19 0 0 0 .104.03.133.133 0 0 0 .075-.032l.07.098c-.057.062-.142.063-.256.002a.579.579 0 0 1-.224-.217.573.573 0 0 1-.086-.303v-.022c0-.073.013-.13.04-.173a.153.153 0 0 1 .108-.073.24.24 0 0 1 .15.031.509.509 0 0 1 .206.204c.048.087.073.19.073.305Z" fill="#26272C"/><path fill-rule="evenodd" clip-rule="evenodd" d="m32.487 56.79-.001.381c.05-.035.112-.032.188.009.146.078.217.203.22.381l-.002.472-.152-.081.001-.467c0-.05-.01-.089-.03-.12a.237.237 0 0 0-.09-.08c-.06-.033-.106-.027-.136.014l-.001.516-.153-.082.003-1.025.153.081Zm1.51 1.097c.08.043.147.1.196.17.05.07.075.138.074.205l-.152-.081a.166.166 0 0 0-.032-.096.24.24 0 0 0-.087-.076c-.034-.018-.06-.025-.082-.02-.021.005-.031.023-.031.05 0 .025.01.05.03.074a.79.79 0 0 0 .118.104c.06.047.106.088.141.127.034.038.06.074.075.11a.262.262 0 0 1 .025.112c0 .065-.026.104-.077.117-.05.012-.117-.003-.2-.046a.603.603 0 0 1-.249-.254.327.327 0 0 1-.035-.14l.147.079c.003.04.016.076.04.11a.301.301 0 0 0 .101.084c.04.022.07.03.092.025.02-.006.031-.02.031-.046a.128.128 0 0 0-.033-.084.724.724 0 0 0-.112-.1 1.167 1.167 0 0 1-.13-.114c-.075-.079-.113-.157-.113-.23 0-.063.025-.101.075-.117.05-.016.111-.004.188.037Zm1.313.54v.175l.12.065-.001.12-.12-.064-.001.403c0 .027.005.05.015.068a.14.14 0 0 0 .055.048.277.277 0 0 0 .054.02v.127a.478.478 0 0 1-.1-.038.314.314 0 0 1-.175-.3v-.409l-.11-.06v-.12l.111.06v-.176l.152.08Zm1.348 1.416.002-.317a.303.303 0 0 0-.136-.156c-.05-.027-.09-.026-.117 0-.029.03-.042.084-.042.167a.43.43 0 0 0 .04.193.275.275 0 0 0 .116.124c.06.032.108.029.137-.011Zm.016-.51.139.073-.003.7c0 .094-.028.154-.083.179-.056.026-.13.013-.225-.037a.608.608 0 0 1-.146-.111.6.6 0 0 1-.108-.144l.072-.06a.44.44 0 0 0 .173.182c.051.027.09.033.12.02.029-.014.045-.048.045-.105v-.048c-.044.029-.103.023-.177-.016a.47.47 0 0 1-.193-.205.664.664 0 0 1-.075-.32c0-.111.026-.188.075-.228.05-.04.115-.04.197.004a.44.44 0 0 1 .182.184l.007-.069Zm.726.738.002-.22a.587.587 0 0 0-.035-.218.245.245 0 0 0-.112-.123c-.05-.027-.086-.027-.11.001-.023.027-.036.083-.037.168l-.001.22c0 .091.01.165.035.222a.25.25 0 0 0 .113.128c.048.026.084.024.108-.004.023-.03.036-.086.038-.174Zm.079-.47c.049.094.074.21.075.346v.169c0 .14-.027.231-.076.275-.049.045-.124.041-.224-.012a.518.518 0 0 1-.223-.223.764.764 0 0 1-.075-.348v-.168c0-.14.025-.232.075-.275.048-.045.124-.04.225.014a.53.53 0 0 1 .223.222Zm.501.166a.59.59 0 0 1 .211.184.42.42 0 0 1 .076.237.238.238 0 0 1-.04.132.398.398 0 0 1-.127.114l-.224.134.424.227v.13l-.613-.329v-.11l.305-.192a.323.323 0 0 0 .093-.08.137.137 0 0 0 .03-.09.248.248 0 0 0-.038-.132.24.24 0 0 0-.098-.095c-.05-.026-.088-.032-.115-.013-.027.017-.041.053-.041.11l-.153-.083c0-.058.013-.105.039-.139a.136.136 0 0 1 .11-.053c.046 0 .1.016.162.048Zm3.213 1.968c.08.043.147.1.196.17.05.068.075.137.075.205l-.153-.082a.165.165 0 0 0-.032-.095.242.242 0 0 0-.087-.077c-.033-.018-.06-.025-.081-.02-.022.006-.032.023-.032.05 0 .026.01.05.028.074a.83.83 0 0 0 .12.105c.06.047.106.088.14.126.035.038.06.074.076.11a.262.262 0 0 1 .025.112c0 .065-.025.104-.077.118-.05.011-.117-.003-.199-.047a.598.598 0 0 1-.25-.254.324.324 0 0 1-.035-.139l.147.078a.21.21 0 0 0 .041.111.3.3 0 0 0 .1.084c.04.021.071.03.09.024.022-.005.033-.02.033-.046a.128.128 0 0 0-.033-.084.724.724 0 0 0-.112-.1 1.12 1.12 0 0 1-.13-.113c-.076-.08-.114-.158-.113-.231 0-.064.025-.1.075-.117.05-.016.112-.003.188.038Zm3.974 1.875c.09.048.162.11.215.188.05.075.077.157.076.244a.137.137 0 0 1-.04.102.135.135 0 0 1-.101.033c.05.045.089.094.114.147.027.054.04.107.039.161 0 .087-.029.141-.085.162-.056.024-.13.009-.221-.04a.604.604 0 0 1-.216-.19.416.416 0 0 1-.084-.244l.152.082c0 .042.014.084.041.126a.29.29 0 0 0 .109.098c.046.025.085.032.111.02.027-.014.042-.043.042-.094a.256.256 0 0 0-.042-.142.346.346 0 0 0-.127-.109l-.09-.048v-.128l.093.05c.047.023.083.03.112.02.027-.01.041-.04.041-.087a.24.24 0 0 0-.033-.127.26.26 0 0 0-.105-.093c-.041-.022-.075-.028-.102-.017-.025.01-.04.036-.04.077l-.15-.081c0-.05.01-.089.036-.116a.127.127 0 0 1 .105-.04c.044 0 .093.015.15.045Zm5.883 3.927v-.317a.294.294 0 0 0-.134-.155c-.05-.027-.089-.026-.117 0-.028.03-.043.084-.043.166 0 .072.014.137.042.194a.275.275 0 0 0 .116.124c.06.032.106.028.136-.012Zm.017-.51.137.074-.002.699c0 .094-.028.155-.083.18-.057.025-.132.012-.225-.037a.61.61 0 0 1-.145-.111.613.613 0 0 1-.109-.144l.072-.06a.44.44 0 0 0 .174.182c.05.027.09.034.119.02.03-.014.044-.049.044-.106v-.048c-.044.03-.102.024-.175-.015a.483.483 0 0 1-.195-.205.679.679 0 0 1-.074-.32c0-.111.026-.188.076-.228.05-.04.114-.04.196.004a.44.44 0 0 1 .183.184l.007-.069Zm3.007 1.304v.382c.05-.034.113-.031.189.01.144.077.217.203.22.38l-.002.473-.153-.082.002-.466c0-.05-.01-.09-.03-.122a.229.229 0 0 0-.09-.08c-.06-.031-.106-.026-.137.015l-.002.516-.152-.082.003-1.025.152.081Zm1.511 1.099c.08.043.147.1.197.17a.351.351 0 0 1 .074.205l-.153-.082a.172.172 0 0 0-.032-.095.244.244 0 0 0-.086-.076c-.034-.019-.06-.025-.082-.02-.021.005-.033.022-.033.049 0 .025.01.05.03.074a.83.83 0 0 0 .12.105c.06.047.106.088.14.126a.474.474 0 0 1 .076.11.26.26 0 0 1 .023.112c0 .064-.024.104-.075.118-.051.011-.117-.003-.2-.047a.556.556 0 0 1-.25-.254.329.329 0 0 1-.036-.14l.149.08a.198.198 0 0 0 .04.11.299.299 0 0 0 .1.083c.04.022.07.03.091.025.022-.005.031-.02.032-.046 0-.03-.01-.057-.033-.084a.719.719 0 0 0-.111-.1 1.172 1.172 0 0 1-.13-.113c-.077-.08-.114-.158-.114-.231 0-.064.026-.1.075-.117.048-.016.112-.003.188.038Zm3.403 2.183v-.22a.56.56 0 0 0-.034-.219.238.238 0 0 0-.111-.122c-.05-.027-.087-.027-.11.002-.023.026-.036.082-.036.168l-.001.22c0 .091.01.165.034.221.024.058.06.1.112.128.05.026.086.025.109-.004.024-.029.035-.086.037-.174Zm.08-.47c.047.094.072.21.073.346v.169c0 .14-.025.232-.075.276-.05.044-.124.04-.225-.013a.517.517 0 0 1-.221-.223.749.749 0 0 1-.077-.348v-.168c.001-.14.027-.232.075-.275.05-.045.125-.04.225.014s.175.129.224.223Z" fill="#135687"/><path fill-rule="evenodd" clip-rule="evenodd" d="m66.634 80.11-2.869 1.544-32.06-17.12 2.87-1.544 32.06 17.12Z" fill="#02ECF1"/><path fill-rule="evenodd" clip-rule="evenodd" d="m52.397 73.193.74 1.188-.227.12-.74-1.188.227-.12Zm8.193 3.347.226.363-.745.393-.228.12-.745.393-.226-.362.745-.393.228-.12.745-.394Zm-.519.756.74 1.187-.227.12-.74-1.187.227-.12Z" fill="#26272C"/><path fill-rule="evenodd" clip-rule="evenodd" d="m61.126 78.807.005-1.891c.001-.232-.176-.516-.394-.633l-1.776-.949c-.22-.118-.398-.023-.398.209l-.006 1.89c0 .233.176.517.396.634l1.775.949c.218.117.397.023.398-.21Zm-7.674-4.103.005-1.89c.001-.233-.176-.517-.395-.634l-1.776-.95c-.218-.116-.396-.022-.397.21l-.006 1.89c0 .233.177.517.395.633l1.775.95c.22.117.398.023.399-.21Zm-5.097-6.067 15.41 8.238-.015 4.784-15.41-8.239.015-4.783Z" fill="#250F8A"/><path fill-rule="evenodd" clip-rule="evenodd" d="m53.137 74.38-.74-1.187.745-.393-.226-.362-.745.393-.74-1.187-.228.12.74 1.187-.745.393.226.363.745-.394.74 1.188.228-.12Zm-.076-2.2c.22.117.397.401.396.633l-.005 1.891c-.001.232-.18.326-.4.209l-1.774-.95c-.219-.116-.395-.4-.395-.632l.006-1.89c0-.233.179-.327.397-.21l1.775.949Z" fill="#A4A6A8"/><path fill-rule="evenodd" clip-rule="evenodd" d="m51.431 71.644.74 1.187-.228.12-.74-1.187.228-.12Z" fill="#26272C"/><path fill-rule="evenodd" clip-rule="evenodd" d="m52.916 72.438.226.362-.745.394-.227.12-.745.393-.227-.363.745-.393.228-.12.745-.393Zm6.189 3.308.74 1.187-.228.12-.74-1.186.228-.12Z" fill="#26272C"/><path fill-rule="evenodd" clip-rule="evenodd" d="m60.811 78.483-.74-1.187.745-.393-.226-.363-.745.393-.74-1.187-.228.12.74 1.188-.745.393.227.362.744-.393.74 1.187.228-.12Zm-.074-2.2c.218.117.395.401.394.633l-.005 1.89c-.001.233-.18.327-.398.21l-1.775-.949c-.22-.117-.397-.401-.396-.634l.006-1.89c0-.232.179-.326.398-.209l1.776.95Z" fill="#A4A6A8"/><path fill-rule="evenodd" clip-rule="evenodd" d="m45.24 68.334.227.363-.745.393-.228.12-.745.393-.226-.362.745-.393.228-.12.745-.394Z" fill="#135685"/><path fill-rule="evenodd" clip-rule="evenodd" d="m45.776 70.6.006-1.89c0-.232-.176-.516-.394-.633l-1.776-.949c-.22-.118-.398-.023-.398.209l-.006 1.89c0 .233.176.517.396.634l1.775.95c.218.116.397.022.397-.21Zm-5.125-6.082 7.704 4.119-.015 4.783-7.704-4.119.015-4.783Z" fill="#02ECF1"/><path fill-rule="evenodd" clip-rule="evenodd" d="m45.462 70.277-.74-1.187.745-.393-.226-.363-.745.393-.74-1.187-.228.12.74 1.187-.745.394.226.362.745-.393.74 1.187.228-.12Zm-.074-2.2c.218.117.395.4.394.633l-.006 1.89c0 .233-.179.327-.397.21l-1.775-.949c-.22-.117-.397-.401-.396-.634l.006-1.89c0-.232.178-.326.398-.209l1.776.95Z" fill="#FEFEFD"/><path fill-rule="evenodd" clip-rule="evenodd" d="m44.722 69.09-.228.12.74 1.187.228-.12-.74-1.187Zm-.966-1.55.74 1.188-.228.12-.74-1.188.228-.12Z" fill="#135685"/><path fill-rule="evenodd" clip-rule="evenodd" d="m29.892 60.128.226.363-.745.393-.228.12-.745.393-.226-.362.745-.393.227-.12.746-.394Z" fill="#26272C"/><path fill-rule="evenodd" clip-rule="evenodd" d="m29.373 60.884.74 1.187-.228.12-.74-1.187.228-.12Z" fill="#26272C"/><path fill-rule="evenodd" clip-rule="evenodd" d="m30.113 62.071-.74-1.187.744-.393-.226-.362-.744.392-.74-1.187-.228.12.74 1.187-.745.394.226.362.745-.393.74 1.187.228-.12Zm-.075-2.2c.219.117.396.401.395.633l-.006 1.89c0 .233-.179.327-.397.21l-1.775-.949c-.22-.117-.397-.401-.396-.633l.005-1.891c.001-.232.18-.326.4-.209l1.774.95Z" fill="#FEFEFD"/><path fill-rule="evenodd" clip-rule="evenodd" d="m28.407 59.334.74 1.187-.228.12-.74-1.187.228-.12Z" fill="#26272C"/><path fill-rule="evenodd" clip-rule="evenodd" d="m30.427 62.395.006-1.891c0-.232-.176-.516-.395-.633l-1.775-.949c-.22-.117-.398-.023-.399.209l-.005 1.89c0 .233.176.517.396.634l1.775.95c.218.116.397.022.397-.21Zm-5.186-6.116 7.704 4.12-.014 4.783-7.704-4.119.014-4.784Z" fill="#250F8A"/><path fill-rule="evenodd" clip-rule="evenodd" d="m37.048 64.987.74 1.188-.227.12-.74-1.188.227-.12Zm-.966-1.549.74 1.187-.228.12-.74-1.187.228-.12Z" fill="#26272C"/><path fill-rule="evenodd" clip-rule="evenodd" d="m37.788 66.174-.74-1.187.745-.393-.226-.362-.745.393-.74-1.187-.228.12.74 1.187-.745.393.226.363.745-.394.74 1.188.228-.12Zm-.076-2.2c.22.117.397.401.396.634l-.005 1.89c-.001.232-.18.326-.399.209l-1.775-.95c-.219-.116-.396-.4-.395-.632l.006-1.89c0-.233.179-.327.397-.21l1.775.949Z" fill="#A4A6A8"/><path fill-rule="evenodd" clip-rule="evenodd" d="m37.567 64.232.226.362-.745.393-.228.12-.745.394-.226-.363.745-.393.228-.12.745-.393Z" fill="#26272C"/><path fill-rule="evenodd" clip-rule="evenodd" d="m38.103 66.498.005-1.89c.001-.233-.176-.517-.396-.634l-1.775-.95c-.218-.116-.396-.022-.397.21l-.006 1.89c0 .233.176.517.395.634l1.775.949c.22.117.398.023.399-.209Zm-5.158-6.1 7.706 4.12-.015 4.784-7.705-4.12.014-4.784Z" fill="#250F8A"/></svg>