<svg width="69" height="37" fill="none" xmlns="http://www.w3.org/2000/svg"><path fill-rule="evenodd" clip-rule="evenodd" d="M38.26 3.062c-.94-.472-2.104-.61-3.404-.374-.801.146-1.656.436-2.542.877a13.76 13.76 0 0 0-2.437 1.577l3.13 1.574a13.718 13.718 0 0 1 2.437-1.577c.886-.442 1.74-.732 2.542-.878 1.3-.237 2.463-.097 3.404.375l-3.13-1.574Z" fill="#F0A72E"/><mask id="a" style="mask-type:alpha" maskUnits="userSpaceOnUse" x="0" y="0" width="31" height="35"><path fill-rule="evenodd" clip-rule="evenodd" d="M0 .61h30.303v33.625H0V.609Z" fill="#fff"/></mask><g mask="url(#a)"><path fill-rule="evenodd" clip-rule="evenodd" d="M27.173 1.173C26.087.627 24.74.467 23.238.74c-.928.169-1.916.504-2.942 1.016-1.706.853-3.308 2.091-4.698 3.556-2.556 2.695-4.392 6.156-4.836 9.377a9.64 9.64 0 0 0-2.433.855c-1.47.735-2.851 1.801-4.048 3.062-2.565 2.7-4.29 6.291-4.281 9.417.008 2.28.937 3.884 2.437 4.638l3.13 1.574c-1.501-.755-2.43-2.36-2.437-4.639-.01-3.126 1.716-6.716 4.28-9.416 1.197-1.262 2.577-2.328 4.05-3.063a9.6 9.6 0 0 1 2.431-.855c.445-3.221 2.281-6.681 4.837-9.377 1.39-1.464 2.99-2.703 4.698-3.556 1.025-.512 2.013-.847 2.941-1.016 1.504-.274 2.848-.113 3.935.433l-3.13-1.573Z" fill="#F0A72E"/></g><path fill-rule="evenodd" clip-rule="evenodd" d="M23.426 3.33c4.84-2.418 8.863-.885 9.581 3.386a13.718 13.718 0 0 1 2.437-1.577c4.614-2.304 8.368-.453 8.383 4.132.015 4.586-3.715 10.175-8.33 12.48L11.514 33.729c-4.62 2.308-8.369.454-8.384-4.133-.015-4.586 3.709-10.17 8.33-12.478a9.635 9.635 0 0 1 2.432-.855c.686-4.973 4.686-10.512 9.535-12.934Z" fill="#FFCA00"/><path fill-rule="evenodd" clip-rule="evenodd" d="M62.705 5.314c-.94-.472-2.103-.61-3.403-.374-.803.146-1.656.436-2.543.877-.85.425-1.665.959-2.437 1.577l3.13 1.574A13.645 13.645 0 0 1 59.89 7.39c.885-.443 1.74-.732 2.54-.878 1.302-.237 2.464-.097 3.404.375l-3.129-1.574ZM51.614 3.42c-1.086-.546-2.432-.707-3.934-.434-.929.17-1.915.504-2.939 1.015-1.7.85-3.298 2.085-4.685 3.547-2.558 2.698-4.397 6.165-4.842 9.39a9.666 9.666 0 0 0-2.44.858c-1.469.733-2.848 1.8-4.045 3.06-2.564 2.7-4.294 6.293-4.284 9.418.008 2.28.939 3.882 2.438 4.637l3.13 1.572c-1.5-.753-2.431-2.356-2.439-4.635-.01-3.126 1.72-6.718 4.284-9.418 1.198-1.261 2.577-2.327 4.045-3.06a9.699 9.699 0 0 1 2.44-.86c.446-3.225 2.285-6.69 4.843-9.388 1.387-1.463 2.984-2.698 4.685-3.548 1.023-.511 2.01-.846 2.938-1.014 1.503-.274 2.848-.113 3.935.433l-3.13-1.573Z" fill="#D43E3E"/><path fill-rule="evenodd" clip-rule="evenodd" d="M47.87 5.574c4.842-2.417 8.865-.878 9.582 3.394A13.693 13.693 0 0 1 59.89 7.39c4.614-2.304 8.368-.454 8.383 4.132.015 4.586-3.715 10.175-8.329 12.48L35.958 35.98c-4.613 2.304-8.368.453-8.383-4.133-.015-4.586 3.715-10.175 8.329-12.48a9.75 9.75 0 0 1 2.44-.858c.685-4.971 4.686-10.518 9.527-12.936Z" fill="#FA7564"/></svg>